<?xml version="1.0" standalone="no"?>
<!DOCTYPE svg PUBLIC "-//W3C//DTD SVG 1.1//EN" "http://www.w3.org/Graphics/SVG/1.1/DTD/svg11.dtd" >
<svg xmlns="http://www.w3.org/2000/svg">
<metadata>Generated by IcoMoon</metadata>
<defs>
<font id="icomoon" horiz-adv-x="1024">
<font-face units-per-em="1024" ascent="960" descent="-64" />
<missing-glyph horiz-adv-x="1024" />
<glyph unicode="&#x20;" horiz-adv-x="512" d="" />
<glyph unicode="&#xe900;" glyph-name="learn" horiz-adv-x="1323" d="M1268.135 111.23v517.476c-0.325 5.198-1.637 10.017-3.75 14.374l0.1-0.228-2.282 3.194c-2.236 3.666-5.325 6.609-9.002 8.608l-607.497 302.608c-3.324 1.696-7.244 2.703-11.397 2.738h-0.011c-0.042 0-0.091 0-0.14 0-4.27 0-8.305-1.011-11.876-2.808l0.152 0.069-606.46-301.176c-9.587-5.519-15.938-15.708-15.938-27.38s6.351-21.86 15.786-27.299l0.152-0.081 204.435-101.761v-426.667c0-0.029 0-0.063 0-0.097 0-11.197 5.761-21.048 14.481-26.752l0.122-0.075c111.839-67.967 246.797-108.689 391.172-109.973l0.358-0.002c149.594 3.11 288.985 44.034 409.841 113.553l-4.165-2.209c9.336 5.352 15.525 15.26 15.525 26.614 0 0.269-0.003 0.538-0.010 0.806l0.001-0.040v424.841l165.191 82.139v-470.93c-32.505-14.444-54.763-46.447-54.763-83.648 0-0.272 0.001-0.543 0.004-0.814v0.041c-0.291-2.608-0.456-5.632-0.456-8.694 0-45.868 37.184-83.052 83.052-83.052s83.052 37.184 83.052 83.052c0 3.062-0.166 6.086-0.489 9.063l0.032-0.369c0.004 0.306 0.006 0.668 0.006 1.031 0 37.377-22.468 69.506-54.635 83.617l-0.586 0.229zM994.339 91.608c-105.612-57.842-231.027-92.732-364.396-94.908l-0.666-0.009c-130.984 0.867-253.461 36.506-358.897 98.131l3.418-1.846v379.209l346.809-172.036c3.419-1.727 7.454-2.738 11.724-2.738 0.049 0 0.099 0 0.148 0h-0.008c4.164 0.035 8.084 1.042 11.556 2.806l-0.148-0.068 346.809 172.036zM634.296 360.385l-540.292 268.321 540.292 267.865 539.836-267.865zM1240.756-4.677c-0.82-0.079-1.774-0.125-2.738-0.125-16.634 0-30.118 13.484-30.118 30.118s13.484 30.118 30.118 30.118c16.59 0 30.047-13.413 30.117-29.986v-0.007c0.003-0.145 0.004-0.317 0.004-0.489 0-15.397-12.105-27.968-27.317-28.714l-0.067-0.003z" />
<glyph unicode="&#xe901;" glyph-name="drill" horiz-adv-x="1170" d="M1036.19 960h-512c-0.386 0.006-0.841 0.010-1.297 0.010-42.735 0-78.090-31.594-83.983-72.699l-0.053-0.454h-134.095c-47.017-0.275-85.058-38.316-85.333-85.307v-60.978h-182.857c-20.198 0-36.571-16.374-36.571-36.571s16.374-36.571 36.571-36.571v0h182.857v-60.952c0.275-47.017 38.316-85.058 85.307-85.333h134.121c5.942-41.498 41.208-73.058 83.861-73.143h67.788l6.827-35.596c16.243-79.112 81.867-138.939 162.645-146.234l0.707-0.052 29.257-205.775c2.056-79.192 66.742-142.605 146.239-142.605 80.791 0 146.286 65.494 146.286 146.286 0 13.253-1.763 26.095-5.066 38.304l0.236-1.024-48.762 346.21h6.827c0.145-0.001 0.317-0.001 0.489-0.001 74.059 0 134.095 60.036 134.095 134.095 0 0.172 0 0.344-0.001 0.515v-0.027 243.81c0 74.059-60.036 134.095-134.095 134.095v0zM292.571 606.476v195.048c0 6.733 5.458 12.19 12.19 12.19v0h134.095v-219.429h-134.095c-6.733 0-12.19 5.458-12.19 12.19v0zM670.476 426.545l-4.389 21.455h70.217l15.116-105.813c-40.79 10.652-71.971 42.971-80.812 83.628l-0.133 0.731zM1006.446 91.55c0.49-3.159 0.77-6.803 0.77-10.512 0-36.172-26.611-66.128-61.324-71.358l-0.398-0.049c-2.994-0.44-6.451-0.691-9.966-0.691-36.317 0-66.368 26.826-71.42 61.743l-0.046 0.388-54.126 376.93h146.286zM1097.143 582.095c0-33.663-27.289-60.952-60.952-60.952v0h-512c-6.733 0-12.19 5.458-12.19 12.19v0 341.333c0 6.733 5.458 12.19 12.19 12.19v0h512c33.663 0 60.952-27.289 60.952-60.952v0zM914.286 813.714h-146.286c-20.198 0-36.571-16.374-36.571-36.571s16.374-36.571 36.571-36.571v0h146.286c20.198 0 36.571 16.374 36.571 36.571s-16.374 36.571-36.571 36.571v0zM914.286 667.429h-146.286c-20.198 0-36.571-16.374-36.571-36.571s16.374-36.571 36.571-36.571v0h146.286c20.198 0 36.571 16.374 36.571 36.571s-16.374 36.571-36.571 36.571v0z" />
<glyph unicode="&#xe902;" glyph-name="pottery" d="M298.667 298.24c-16.163 26.653-45.018 44.189-77.969 44.189-10.108 0-19.83-1.65-28.912-4.696l0.641 0.186v78.080c0 53.019-42.981 96-96 96s-96-42.981-96-96v0-220.587c0.204-53.462 18.824-102.537 49.841-141.249l-0.348 0.449 90.88-107.093c5.834-7.058 14.59-11.522 24.389-11.522 0.126 0 0.251 0.001 0.377 0.002h-0.019c17.558 0.151 31.733 14.42 31.733 31.999 0 7.814-2.801 14.974-7.454 20.531l0.041-0.050-90.453 106.667c-21.765 27.266-34.941 62.223-34.987 100.256v220.597c0 17.673 14.327 32 32 32s32-14.327 32-32v0-160c-0.091-0.513-0.143-1.104-0.143-1.707s0.052-1.194 0.152-1.768l-0.009 0.061c-0.029-0.869-0.046-1.891-0.046-2.917 0-15.455 3.804-30.022 10.528-42.815l-0.242 0.505 57.6-96c5.582-9.851 15.995-16.391 27.935-16.391 17.673 0 32 14.327 32 32 0 6.582-1.987 12.7-5.394 17.786l0.073-0.116-56.32 93.867c-1.767 3.578-2.801 7.79-2.801 12.243 0 10.118 5.336 18.989 13.347 23.954l0.12 0.069c3.994 2.253 8.769 3.581 13.854 3.581 10.679 0 19.991-5.856 24.899-14.532l0.074-0.142 49.067-71.68c16.79-24.954 26.821-55.673 26.88-88.731v-133.988c0-17.673 14.327-32 32-32s32 14.327 32 32v0 132.267c0.002 0.323 0.003 0.705 0.003 1.088 0 46.050-14.030 88.823-38.048 124.279l0.498-0.78zM928 512c-53.019 0-96-42.981-96-96v0-78.080c-8.476 2.899-18.241 4.573-28.397 4.573-32.381 0-60.788-17.015-76.768-42.592l-0.222-0.381-49.067-73.387c-23.518-34.631-37.548-77.361-37.548-123.367 0-0.279 0.001-0.557 0.002-0.836v0.043-133.973c0-17.673 14.327-32 32-32s32 14.327 32 32v0 133.973c-0.002 0.297-0.003 0.648-0.003 1 0 33.171 10.041 63.997 27.248 89.604l-0.365-0.577 49.493 74.24c5.037 8.118 13.901 13.443 24.008 13.443 5.664 0 10.937-1.672 15.353-4.55l-0.109 0.066c7.608-5.027 12.558-13.542 12.558-23.213 0-3.622-0.694-7.082-1.957-10.254l0.066 0.187-57.6-96c-3.334-4.971-5.321-11.089-5.321-17.671 0-17.673 14.327-32 32-32 11.94 0 22.353 6.539 27.852 16.232l0.083 0.159 58.88 98.133c6.215 11.779 9.863 25.742 9.863 40.558 0 1.042-0.018 2.079-0.054 3.112l0.004-0.15s0 0 0 0v161.707c0 17.673 14.327 32 32 32s32-14.327 32-32v0-220.587c0-0.027 0-0.059 0-0.092 0-37.675-13.021-72.308-34.809-99.646l0.249 0.324-90.88-107.52c-4.956-5.676-7.978-13.152-7.978-21.333 0-17.956 14.556-32.511 32.511-32.511 9.774 0 18.541 4.313 24.5 11.14l0.033 0.038 91.307 107.947c30.576 38.125 49.070 87.083 49.070 140.361 0 0.454-0.001 0.908-0.004 1.362v-0.070 220.587c0 53.019-42.981 96-96 96v0zM800 567.040c0.002 0.349 0.003 0.762 0.003 1.174 0 59.074-19.209 113.662-51.721 157.857l0.518-0.739c-4.806 6.809-7.681 15.28-7.681 24.422 0 5.647 1.097 11.038 3.090 15.971l-0.102-0.286c10.417 25.252 16.518 54.563 16.64 85.285v0.048c-2.56 75.947-130.133 109.227-248.747 109.227s-248.747-33.707-248.747-107.947c0.122-30.77 6.223-60.081 17.2-86.879l-0.56 1.545c2.038-4.647 3.224-10.062 3.224-15.755 0-9.013-2.973-17.332-7.992-24.029l0.075 0.104c-32.007-44.117-51.201-99.343-51.201-159.051 0-0.184 0-0.367 0.001-0.551v0.028c3.102-153.87 128.227-277.499 282.387-278.186h5.613c1.039-0.014 2.266-0.021 3.495-0.021 154.78 0 280.7 123.564 284.498 277.429l0.007 0.352zM512 896c117.333 0 179.627-32.427 184.747-42.667-5.12-12.8-67.413-45.227-184.747-45.227s-178.347 31.573-184.32 42.667v0c5.547 13.227 67.84 45.227 184.32 45.227zM515.413 352h-7.68c-0.028 0-0.060 0-0.093 0-119.105 0-216.077 94.763-219.632 213.006l-0.008 0.327c0 0.014 0 0.031 0 0.048 0 45.509 14.721 87.58 39.661 121.71l-0.407-0.585c12.142 17.085 19.412 38.371 19.412 61.354 0 7.124-0.698 14.084-2.030 20.817l0.112-0.678c47.225-16.28 101.644-25.681 158.259-25.681 3.162 0 6.318 0.029 9.466 0.088l-0.472-0.007c2.68-0.051 5.84-0.081 9.007-0.081 56.758 0 111.32 9.4 162.216 26.728l-3.542-1.047c-1.349-6.312-2.122-13.564-2.122-20.997 0-22.669 7.187-43.66 19.406-60.818l-0.218 0.322c24.485-33.435 39.199-75.367 39.253-120.734v-0.013c-3.563-118.806-100.726-213.761-220.067-213.761-0.183 0-0.365 0-0.548 0.001h0.028z" />
<glyph unicode="&#xe908;" glyph-name="scream" d="M511.787 64.373c-2.52-0.257-5.445-0.403-8.405-0.403-45.962 0-83.68 35.293-87.533 80.257l-0.023 0.326v191.92c4.084 45.096 41.707 80.16 87.519 80.16 2.972 0 5.91-0.148 8.807-0.436l-0.366 0.029c2.531 0.259 5.469 0.406 8.441 0.406 45.812 0 83.435-35.064 87.494-79.819l0.025-0.341v-191.92c-3.875-45.29-41.594-80.583-87.555-80.583-2.96 0-5.885 0.146-8.77 0.432l0.365-0.029zM511.787 352.253c-20.045 0-31.987-10.236-31.987-15.78v-191.92c0-5.971 11.942-16.207 31.987-16.207s31.987 10.236 31.987 16.207v191.92c0 5.544-11.942 15.78-31.987 15.78zM869.611 222.174c-0.009 0-0.020 0-0.031 0-10.733 0-20.215 5.358-25.916 13.545l-0.068 0.103c-3.391 4.999-5.414 11.167-5.414 17.806 0 11.285 5.844 21.205 14.671 26.899l0.126 0.076 9.383 5.971c59.708 42.649 98.945 68.238 98.945 203.435-1.706 235.422-190.214 406.017-449.519 406.017s-447.813-170.596-447.813-405.165c0-135.197 39.663-162.066 99.372-203.435l7.25-5.544c8.307-5.862 13.665-15.42 13.665-26.229 0-17.676-14.329-32.004-32.004-32.004-6.866 0-13.227 2.162-18.44 5.843l0.101-0.067-5.971 5.544c-66.106 42.649-127.947 85.298-127.947 255.893 0 271.247 215.377 469.138 511.787 469.138s511.787-197.891 511.787-469.138c0-170.596-61.414-213.244-127.947-255.893l-8.956-6.397c-4.718-3.599-10.578-5.93-16.956-6.391l-0.104-0.006zM511.787-63.574c-0.136 0-0.298 0-0.459 0-87.477 0-165.475 40.58-216.199 103.941l-0.425 0.549c-4.286 5.399-6.876 12.313-6.876 19.832 0 17.694 14.344 32.039 32.039 32.039 10.176 0 19.243-4.744 25.112-12.141l0.051-0.066c39.408-48.766 99.215-79.693 166.245-79.693 50.178 0 96.308 17.331 132.731 46.334l-0.433-0.333c13.014 10.487 24.485 21.958 34.635 34.54l0.337 0.432c5.79 8.098 15.161 13.313 25.751 13.313 7.955 0 15.223-2.943 20.773-7.8l-0.037 0.031c7.491-5.909 12.256-14.986 12.256-25.177 0-7.42-2.526-14.249-6.765-19.675l0.053 0.071c-13.528-17.189-28.366-32.297-44.693-45.653l-0.515-0.408c-46.86-37.475-106.99-60.137-172.412-60.137-0.411 0-0.822 0.001-1.232 0.003h0.063zM31.987-63.574c-0.589-0.039-1.277-0.062-1.97-0.062-13.946 0-25.779 9.046-29.953 21.59l-0.064 0.223c-0.994 2.974-1.567 6.398-1.567 9.956 0 14.030 8.913 25.977 21.386 30.489l0.226 0.071c4.691 0 103.637 38.384 103.637 178.272 0.048 2.397 0.076 5.223 0.076 8.055 0 51.401-9.093 100.679-25.759 146.312l0.946-2.963c-6.745 11.931-10.719 26.2-10.719 41.398 0 23.031 9.128 43.931 23.964 59.278l-0.023-0.024c12.442 11.316 29.049 18.244 47.274 18.244 12.551 0 24.334-3.286 34.537-9.044l-0.352 0.182c94.433-51.269 158.086-148.621 160.779-261.071l0.007-0.367c0.407-9.383 0.64-20.39 0.64-31.45 0-65.602-8.165-129.297-23.535-190.124l1.144 5.344c-3.566-14.112-16.15-24.389-31.134-24.389-17.71 0-32.066 14.357-32.066 32.066 0 2.726 0.34 5.372 0.98 7.898l-0.048-0.222c13.114 51.175 20.641 109.924 20.641 170.431 0 10.257-0.216 20.464-0.645 30.617l0.049-1.451c-2.959 74.673-38.025 140.603-91.687 184.749l-0.435 0.347c-11.105 11.383-25.792 19.224-42.238 21.7l-0.411 0.051c-5.118-5.544-5.118-5.544 4.265-34.119 17.874-48.403 28.214-104.306 28.214-162.624 0-2.803-0.024-5.6-0.071-8.392l0.006 0.421c1.279-188.935-139.888-237.981-145.433-241.393-1.601-0.213-3.452-0.335-5.331-0.335s-3.73 0.122-5.545 0.357l0.214-0.023zM991.587-63.574c-1.601-0.213-3.452-0.335-5.331-0.335s-3.73 0.122-5.545 0.357l0.214-0.023c-5.971 0-146.712 51.179-146.712 239.26-0.050 2.587-0.078 5.637-0.078 8.694 0 58.036 10.187 113.693 28.869 165.281l-1.069-3.38c9.383 28.575 9.383 28.575 2.132 35.399-16.482-4.811-30.749-12.73-42.792-23.151l0.143 0.121c-53.878-44.155-88.894-109.597-92.103-183.293l-0.018-0.524c-0.395-8.9-0.62-19.34-0.62-29.832 0-60.722 7.536-119.683 21.722-176.001l-1.058 4.957c0.663-2.415 1.044-5.188 1.044-8.050 0-14.927-10.363-27.434-24.287-30.718l-0.214-0.043c-2.39-0.658-5.134-1.037-7.967-1.037-14.842 0-27.258 10.385-30.378 24.286l-0.039 0.208c-14.521 55.63-22.858 119.495-22.858 185.306 0 11.326 0.247 22.595 0.736 33.8l-0.055-1.597c3.089 112.345 66.65 209.163 159.183 259.363l1.603 0.796c9.904 5.551 21.735 8.82 34.33 8.82 18.308 0 35.003-6.908 47.621-18.26l-0.065 0.057c14.651-15.291 23.671-36.078 23.671-58.973 0-15.31-4.034-29.679-11.096-42.1l0.221 0.421c-15.46-42.475-24.4-91.506-24.4-142.625 0-3.086 0.033-6.165 0.097-9.236l-0.008 0.458c0-142.447 101.931-177.846 103.21-178.272 12.738-4.41 21.722-16.303 21.722-30.295 0-3.658-0.614-7.173-1.745-10.446l0.068 0.225c-4.695-11.289-15.448-19.173-28.094-19.617l-0.054-0.002zM321.573 448.213c-3.451-0.325-7.461-0.511-11.515-0.511s-8.065 0.185-12.024 0.548l0.509-0.038c-60.586 7.505-107.020 58.669-107.020 120.678 0 3.459 0.145 6.885 0.428 10.271l-0.030-0.443c-0.242 3.127-0.379 6.772-0.379 10.449s0.138 7.322 0.408 10.93l-0.029-0.481c12.162 59.017 63.694 102.759 125.443 102.759 70.663 0 127.947-57.284 127.947-127.947 0-69.783-55.865-126.517-125.312-127.92l-0.131-0.002zM321.573 643.545c-0.238 0.003-0.52 0.005-0.802 0.005-32.662 0-59.755-23.841-64.827-55.070l-0.051-0.378c-0.201-1.791-0.315-3.868-0.315-5.971s0.114-4.18 0.338-6.224l-0.022 0.253c-0.221-1.9-0.347-4.102-0.347-6.334 0-29.752 22.4-54.272 51.256-57.614l0.27-0.025h2.559c5.073-1.416 10.898-2.23 16.913-2.23 36.038 0 65.253 29.215 65.253 65.253 0 33.733-25.598 61.488-58.428 64.9l-0.281 0.024c-3.543 0.958-7.64 1.572-11.858 1.704l-0.084 0.002zM737.399 448.213c-3.322-0.302-7.185-0.473-11.089-0.473s-7.767 0.172-11.583 0.509l0.494-0.035c-60.967 7.126-107.832 58.476-107.832 120.773 0 3.275 0.13 6.52 0.384 9.73l-0.027-0.424c0.223 7.552 0.989 14.754 2.265 21.778l-0.133-0.88c12.162 59.017 63.694 102.759 125.443 102.759 70.663 0 127.947-57.284 127.947-127.947 0-69.783-55.865-126.517-125.312-127.92l-0.131-0.002zM737.399 643.545c-31.798-0.306-58.17-23.161-63.908-53.328l-0.065-0.41c-0.201-1.791-0.315-3.868-0.315-5.971s0.114-4.18 0.338-6.224l-0.022 0.253c-0.35-2.395-0.55-5.16-0.55-7.972 0-29.975 22.737-54.639 51.905-57.686l0.25-0.021c5.073-1.416 10.898-2.23 16.913-2.23 36.038 0 65.253 29.215 65.253 65.253 0 33.733-25.598 61.488-58.428 64.9l-0.281 0.024c-3.403 0.925-7.348 1.537-11.409 1.703l-0.107 0.003z" />
<glyph unicode="&#xe909;" glyph-name="happy" d="M512-64c-282.77 0-512 229.23-512 512s229.23 512 512 512c282.77 0 512-229.23 512-512v0c0-282.77-229.23-512-512-512v0zM512 896c-247.424 0-448-200.576-448-448s200.576-448 448-448c247.424 0 448 200.576 448 448v0c-0.243 247.326-200.674 447.757-447.977 448h-0.023zM512 64c-152.335 0.1-282.050 96.834-331.169 232.214l-0.778 2.452c-2.432 6.33-3.84 13.652-3.84 21.303 0 0.010 0 0.021 0 0.031v-0.002c0 35.346 28.654 64 64 64v0h543.573c7.666-0.035 14.994-1.44 21.766-3.982l-0.432 0.142c25.001-8.938 42.569-32.419 42.569-60.003 0-7.708-1.372-15.095-3.884-21.931l0.142 0.441c-36.083-99.912-113.422-177.25-210.895-212.561l-2.439-0.772c-35.243-13.174-75.962-20.963-118.452-21.332l-0.162-0.001zM240.64 320c40.696-112.881 146.88-192.125 271.573-192.125s230.878 79.244 270.94 190.119l0.633 2.006zM240.64 352v-32zM698.453 480c-0.229-0.002-0.5-0.002-0.771-0.002-15.023 0-29.425 2.659-42.762 7.532l0.865-0.277c-36.584 13.18-64.9 41.496-77.799 77.188l-0.281 0.892c-1.126 3.18-1.776 6.847-1.776 10.667 0 18.183 14.74 32.923 32.923 32.923 14.363 0 26.578-9.198 31.076-22.025l0.070-0.231c9.024-25.12 32.639-42.762 60.373-42.762s51.349 17.642 60.233 42.316l0.14 0.446c4.345 12.587 16.092 21.467 29.912 21.467 3.809 0 7.46-0.674 10.841-1.91l-0.219 0.070c12.917-4.313 22.064-16.297 22.064-30.418 0-4.419-0.896-8.629-2.516-12.458l0.079 0.21c-18.568-49.251-65.302-83.649-120.071-83.649-0.838 0-1.674 0.008-2.508 0.024l0.125-0.002zM325.12 480c-0.337-0.003-0.735-0.005-1.134-0.005-14.898 0-29.175 2.661-42.381 7.533l0.849-0.274c-36.41 13.285-64.562 41.576-77.373 77.188l-0.28 0.892c-1.541 3.619-2.437 7.829-2.437 12.248 0 14.121 9.146 26.105 21.838 30.353l0.226 0.066c3.688 1.634 7.989 2.585 12.513 2.585 14.096 0 26.034-9.237 30.092-21.988l0.061-0.224c6.845-18.258 20.996-32.409 38.798-39.103l0.456-0.15c5.461-1.685 11.738-2.655 18.243-2.655 26.773 0 49.706 16.439 59.256 39.775l0.155 0.427c4.531 12.601 16.379 21.45 30.293 21.45 17.737 0 32.116-14.379 32.116-32.116 0-3.823-0.668-7.49-1.894-10.891l0.070 0.224c-17.964-49.763-64.555-84.796-119.402-85.333l-0.065-0.001z" />
<glyph unicode="&#xe90a;" glyph-name="scared" d="M512-64c-282.77 0-512 229.23-512 512s229.23 512 512 512c282.77 0 512-229.23 512-512v0c0-282.77-229.23-512-512-512v0zM512 896c-247.424 0-448-200.576-448-448s200.576-448 448-448c247.424 0 448 200.576 448 448v0c-0.243 247.326-200.674 447.757-447.977 448h-0.023zM352 528.213c-26.627 0.001-48.211 21.586-48.211 48.213s21.586 48.213 48.213 48.213c26.627 0 48.213-21.586 48.213-48.213 0-0.15-0.001-0.3-0.002-0.45v0.023c-0.241-26.443-21.734-47.787-48.211-47.787-0.001 0-0.001 0-0.002 0v0zM352 592.213c-0.127 0.004-0.277 0.006-0.427 0.006-8.954 0-16.213-7.259-16.213-16.213s7.259-16.213 16.213-16.213c8.952 0 16.21 7.256 16.213 16.207v0c0.004 0.127 0.006 0.277 0.006 0.427 0 8.719-7.068 15.787-15.787 15.787-0.002 0-0.004 0-0.006 0v0zM672 528.213c-26.627 0.001-48.211 21.586-48.211 48.213s21.586 48.213 48.213 48.213c26.627 0 48.213-21.586 48.213-48.213 0-0.15-0.001-0.3-0.002-0.45v0.023c-0.241-26.443-21.734-47.787-48.211-47.787-0.001 0-0.001 0-0.002 0v0zM672 592.213c-0.127 0.004-0.277 0.006-0.427 0.006-8.954 0-16.213-7.259-16.213-16.213s7.259-16.213 16.213-16.213c8.952 0 16.21 7.256 16.213 16.207v0c0.004 0.127 0.006 0.277 0.006 0.427 0 8.719-7.068 15.787-15.787 15.787-0.002 0-0.004 0-0.006 0v0zM704 192c-0.044 0-0.097 0-0.149 0-8.788 0-16.737 3.59-22.461 9.384l-73.39 73.39-73.387-73.387c-5.789-5.782-13.784-9.359-22.613-9.359s-16.824 3.576-22.614 9.359v0l-73.387 73.387-74.667-73.387c-4.546-2.63-10-4.182-15.816-4.182-17.673 0-32 14.327-32 32 0 6.472 1.921 12.495 5.224 17.53l-0.075-0.121 96 96c5.789 5.782 13.784 9.359 22.613 9.359s16.824-3.576 22.614-9.359v0l72.107-73.387 73.387 73.387c5.789 5.782 13.784 9.359 22.613 9.359s16.824-3.576 22.614-9.359v0l94.72-96c5.782-5.789 9.359-13.784 9.359-22.613s-3.576-16.824-9.359-22.614v0c-5.466-5.542-12.959-9.072-21.275-9.385l-0.058-0.002z" />
<glyph unicode="&#xe90b;" glyph-name="email" d="M901.565 91.826h-801.391c-55.325 0-100.174 44.849-100.174 100.174v0 534.261c0 55.325 44.849 100.174 100.174 100.174v0h801.391c55.325 0 100.174-44.849 100.174-100.174v0-534.261c0-55.325-44.849-100.174-100.174-100.174v0zM100.174 759.652c-18.341-0.247-33.144-15.050-33.391-33.368v-534.284c0.247-18.341 15.050-33.144 33.368-33.391h801.414c18.341 0.247 33.144 15.050 33.391 33.368v534.284c-0.247 18.341-15.050 33.144-33.368 33.391h-0.023zM500.87 425.739c-0.232-0.001-0.506-0.002-0.78-0.002-41.326 0-79.364 14.076-109.581 37.696l0.393-0.296-362.852 279.151c-8.96 6.081-14.769 16.22-14.769 27.716 0 18.442 14.95 33.391 33.391 33.391 8.604 0 16.447-3.254 22.367-8.598l-0.029 0.026 362.407-280.042c18.985-14.796 43.177-23.723 69.454-23.723s50.469 8.927 69.708 23.914l-0.254-0.19 364.633 280.042c5.891 5.318 13.734 8.572 22.338 8.572 18.442 0 33.391-14.95 33.391-33.391 0-11.496-5.809-21.635-14.653-27.642l-0.117-0.075-365.078-279.151c-29.825-23.324-67.863-37.4-109.189-37.4-0.274 0-0.548 0.001-0.822 0.002h0.042z" />
<glyph unicode="&#xe90c;" glyph-name="warning" d="M512 192c-1.358-0.136-2.935-0.213-4.531-0.213-26.627 0-48.213 21.586-48.213 48.213s21.586 48.213 48.213 48.213c1.595 0 3.172-0.077 4.728-0.229l-0.197 0.016c24.606-2.391 43.683-22.968 43.683-48s-19.077-45.609-43.485-47.984l-0.197-0.016zM512 256c-0.788 0.136-1.696 0.213-2.621 0.213-8.954 0-16.213-7.259-16.213-16.213s7.259-16.213 16.213-16.213c0.926 0 1.833 0.078 2.717 0.227l-0.095-0.013c7.756 1.306 13.592 7.971 13.592 16s-5.836 14.694-13.497 15.987l-0.095 0.013zM512 352c-17.577 0.237-31.763 14.423-32 31.977v320.023c0 17.673 14.327 32 32 32s32-14.327 32-32v0-320c-0.237-17.577-14.423-31.763-31.977-32h-0.023zM512-64c-30.16 0.005-57.464 12.233-77.227 32l-402.773 402.773c-19.761 19.765-31.984 47.069-31.984 77.227s12.222 57.461 31.984 77.227l402.773 402.773c19.765 19.761 47.069 31.984 77.227 31.984s57.461-12.222 77.227-31.984l402.773-402.773c19.761-19.765 31.984-47.069 31.984-77.227s-12.222-57.461-31.984-77.227l-402.773-402.773c-19.763-19.767-47.067-31.995-77.226-32h-0.001zM77.227 416l402.773-402.773c8.319-7.9 19.592-12.76 32-12.76s23.681 4.859 32.020 12.779l-0.020-0.019 402.773 402.773c8.095 8.233 13.092 19.533 13.092 32s-4.997 23.767-13.098 32.006l-402.767 402.767c-8.233 8.095-19.533 13.092-32 13.092s-23.767-4.997-32.006-13.098l-402.767-402.767c-8.095-8.233-13.092-19.533-13.092-32s4.997-23.767 13.098-32.006l-0.006 0.006z" />
<glyph unicode="&#xe90d;" glyph-name="categories" d="M359.336 502.663h-261.336c-54.124 0-98.001 43.876-98.001 98.001v0 261.336c0 54.124 43.876 98.001 98.001 98.001v0h261.336c54.124 0 98.001-43.876 98.001-98.001v0-261.336c0-54.124-43.876-98.001-98.001-98.001v0zM98.001 894.666c-17.943-0.242-32.425-14.724-32.667-32.644v-261.359c0.242-17.943 14.724-32.425 32.644-32.667h261.359c17.943 0.242 32.425 14.724 32.667 32.644v261.359c-0.242 17.943-14.724 32.425-32.644 32.667h-0.023zM359.336-64h-261.336c-54.124 0-98.001 43.876-98.001 98.001v0 261.336c-0.001 0.129-0.001 0.282-0.001 0.436 0 54.124 43.876 98.001 98.001 98.001 0 0 0.001 0 0.001 0h261.335c54.124 0 98.001-43.876 98.001-98.001v0-261.336c0.001-0.129 0.001-0.282 0.001-0.436 0-54.124-43.876-98.001-98.001-98.001 0 0-0.001 0-0.001 0v0zM98.001 328.003c-17.943-0.242-32.425-14.724-32.667-32.644v-261.359c0.242-17.943 14.724-32.425 32.644-32.667h261.359c17.943 0.242 32.425 14.724 32.667 32.644v261.359c-0.242 17.943-14.724 32.425-32.644 32.667h-0.023zM925.999 502.663h-261.336c-0.129-0.001-0.282-0.001-0.436-0.001-54.124 0-98.001 43.876-98.001 98.001 0 0 0 0.001 0 0.001v0 261.336c0 0 0 0.001 0 0.001 0 54.124 43.876 98.001 98.001 98.001 0.153 0 0.306 0 0.459-0.001h261.312c54.124 0 98.001-43.876 98.001-98.001v0-261.336c0-54.124-43.876-98.001-98.001-98.001v0zM664.664 894.666c-17.943-0.242-32.425-14.724-32.667-32.644v-261.359c0.242-17.943 14.724-32.425 32.644-32.667h261.359c17.756 0.481 31.996 14.873 32.231 32.644v261.358c-0.242 17.943-14.724 32.425-32.644 32.667h-0.023zM925.999-64h-261.336c-0.129-0.001-0.282-0.001-0.436-0.001-54.124 0-98.001 43.876-98.001 98.001 0 0 0 0.001 0 0.001v0 261.336c-0.001 0.13-0.001 0.283-0.001 0.437 0 54.124 43.876 98.001 98.001 98.001 0.153 0 0.307 0 0.46-0.001h261.312c54.124 0 98.001-43.876 98.001-98.001v0-261.336c0.001-0.129 0.001-0.282 0.001-0.436 0-54.124-43.876-98.001-98.001-98.001 0 0-0.001 0-0.001 0v0zM664.664 328.003c-17.943-0.242-32.425-14.724-32.667-32.644v-261.359c0.242-17.943 14.724-32.425 32.644-32.667h261.359c17.943 0.242 32.425 14.724 32.667 32.644v261.359c-0.242 17.943-14.724 32.425-32.644 32.667h-0.023z" />
<glyph unicode="&#xe90e;" glyph-name="settings" d="M750.933 448c-28.123 0.379-50.821 23.077-51.2 51.164v409.636c0 28.277 22.923 51.2 51.2 51.2s51.2-22.923 51.2-51.2v0-409.6c-0.379-28.123-23.077-50.821-51.164-51.2h-0.036zM750.933-64c-28.123 0.379-50.821 23.077-51.2 51.164v204.836c0 28.277 22.923 51.2 51.2 51.2s51.2-22.923 51.2-51.2v0-204.8c-0.379-28.123-23.077-50.821-51.164-51.2h-0.036zM750.933 140.8c-113.108 0-204.8 91.692-204.8 204.8s91.692 204.8 204.8 204.8c113.108 0 204.8-91.692 204.8-204.8v0c0-113.108-91.692-204.8-204.8-204.8v0zM750.933 448c-56.554 0-102.4-45.846-102.4-102.4s45.846-102.4 102.4-102.4c56.554 0 102.4 45.846 102.4 102.4v0c0 56.554-45.846 102.4-102.4 102.4v0zM238.933-64c-28.123 0.379-50.821 23.077-51.2 51.164v614.436c0 28.277 22.923 51.2 51.2 51.2s51.2-22.923 51.2-51.2v0-614.4c-0.379-28.123-23.077-50.821-51.164-51.2h-0.036zM238.933 550.4c-113.108 0-204.8 91.692-204.8 204.8s91.692 204.8 204.8 204.8c113.108 0 204.8-91.692 204.8-204.8v0c0-113.108-91.692-204.8-204.8-204.8v0zM238.933 857.6c-56.554 0-102.4-45.846-102.4-102.4s45.846-102.4 102.4-102.4c56.554 0 102.4 45.846 102.4 102.4v0c0 56.554-45.846 102.4-102.4 102.4v0z" />
<glyph unicode="&#xe90f;" glyph-name="check" d="M399.36 99.84c-7.86 0.107-15.015 3.035-20.519 7.816l0.039-0.033-368.64 327.68c-6.315 5.656-10.27 13.835-10.27 22.938 0 16.983 13.767 30.75 30.75 30.75 7.88 0 15.068-2.964 20.509-7.838l-0.029 0.026 345.293-307.2 553.37 632.013c5.482 5.941 13.307 9.649 21.998 9.649 7.222 0 13.845-2.56 19.013-6.822l-0.051 0.041c6.533-5.521 10.654-13.721 10.654-22.883 0-7.762-2.958-14.834-7.808-20.149l0.021 0.023-573.44-655.36c-5.092-6.060-12.473-10.055-20.794-10.644l-0.095-0.005z" />
<glyph unicode="&#xe910;" glyph-name="menu" d="M987.429 131.048h-950.857c-20.198 0-36.571 16.374-36.571 36.571s16.374 36.571 36.571 36.571v0h950.857c20.198 0 36.571-16.374 36.571-36.571s-16.374-36.571-36.571-36.571v0zM987.429 423.619h-950.857c-20.198 0-36.571 16.374-36.571 36.571s16.374 36.571 36.571 36.571v0h950.857c20.198 0 36.571-16.374 36.571-36.571s-16.374-36.571-36.571-36.571v0zM987.429 716.19h-950.857c-20.088 0.271-36.3 16.484-36.571 36.546v0.026c0.271 20.088 16.484 36.3 36.546 36.571h950.883c20.088-0.271 36.3-16.484 36.571-36.546v-0.026c-0.271-20.088-16.484-36.3-36.546-36.571h-0.026z" />
<glyph unicode="&#xe911;" d="M352 800h640z" />
<glyph unicode="&#xe912;" d="M992 768h-640c-17.673 0-32 14.327-32 32s14.327 32 32 32v0h640c17.673 0 32-14.327 32-32s-14.327-32-32-32v0z" />
<glyph unicode="&#xe913;" d="M352 416h640z" />
<glyph unicode="&#xe914;" d="M992 384h-640c-17.673 0-32 14.327-32 32s14.327 32 32 32v0h640c17.673 0 32-14.327 32-32s-14.327-32-32-32v0z" />
<glyph unicode="&#xe915;" d="M352 32h640z" />
<glyph unicode="&#xe916;" d="M992 0h-640c-17.673 0-32 14.327-32 32s14.327 32 32 32v0h640c17.673 0 32-14.327 32-32s-14.327-32-32-32v0z" />
<glyph unicode="&#xe917;" d="M192 704h-128c-35.346 0-64 28.654-64 64v0 128c0 35.346 28.654 64 64 64v0h128c35.346 0 64-28.654 64-64v0-128c0-35.346-28.654-64-64-64v0zM64 896v-128h128v128z" />
<glyph unicode="&#xe918;" d="M192 320h-128c-35.346 0-64 28.654-64 64v0 128c0 35.346 28.654 64 64 64v0h128c35.346 0 64-28.654 64-64v0-128c0-35.346-28.654-64-64-64v0zM64 512v-128h128v128z" />
<glyph unicode="&#xe919;" d="M192-64h-128c-35.346 0-64 28.654-64 64v0 128c0 35.346 28.654 64 64 64v0h128c35.346 0 64-28.654 64-64v0-128c0-35.346-28.654-64-64-64v0zM64 128v-128h128v128z" />
<glyph unicode="&#xe91a;" glyph-name="more" horiz-adv-x="288" d="M144.213-64c-0.126 0-0.276-0.001-0.426-0.001-79.647 0-144.213 64.567-144.213 144.213s64.567 144.213 144.213 144.213c79.647 0 144.213-64.567 144.213-144.213 0-0.15 0-0.299-0.001-0.449v0.023c0-79.411-64.375-143.787-143.787-143.787v0zM144.213 160c-0.127 0.001-0.277 0.001-0.427 0.001-44.301 0-80.213-35.913-80.213-80.213s35.913-80.213 80.213-80.213c44.3 0 80.213 35.912 80.213 80.212v0c0 0 0 0.001 0 0.001 0 44.151-35.67 79.97-79.764 80.212h-0.023zM144.213 672c-0.126 0-0.276-0.001-0.426-0.001-79.647 0-144.213 64.567-144.213 144.213s64.567 144.213 144.213 144.213c79.647 0 144.213-64.567 144.213-144.213 0-0.15 0-0.299-0.001-0.449v0.023c0-79.411-64.375-143.787-143.787-143.787v0zM144.213 896c-0.127 0.001-0.277 0.001-0.427 0.001-44.301 0-80.213-35.913-80.213-80.213s35.913-80.213 80.213-80.213c44.3 0 80.213 35.912 80.213 80.212v0c0 0 0 0.001 0 0.001 0 44.151-35.67 79.97-79.764 80.212h-0.023zM144.213 303.787v0c-0.127 0-0.277-0.001-0.427-0.001-79.647 0-144.213 64.567-144.213 144.213s64.567 144.213 144.213 144.213c79.647 0 144.213-64.566 144.213-144.213v0c0-79.647-64.567-144.213-144.213-144.213v0zM144.213 527.787c-1.75 0.136-3.789 0.213-5.846 0.213-44.301 0-80.213-35.913-80.213-80.213s35.913-80.213 80.213-80.213c2.057 0 4.097 0.077 6.115 0.23l-0.269-0.016c41.713 3.14 74.367 37.757 74.367 80s-32.655 76.86-74.098 79.984l-0.269 0.016z" />
<glyph unicode="&#xe91b;" glyph-name="hide" d="M512 128c-270.933 0-438.187 192.427-497.493 275.2-8.99 12.508-14.377 28.131-14.377 45.013s5.387 32.505 14.536 45.245l-0.159-0.232c59.733 82.347 226.987 274.773 497.493 274.773s438.187-192.427 497.493-275.2c9.015-12.427 14.421-27.982 14.421-44.8s-5.406-32.373-14.575-45.023l0.154 0.223c-59.733-82.773-226.987-275.2-497.493-275.2zM512 704c-240.64 0-391.68-173.653-445.44-248.32-1.598-2.113-2.56-4.784-2.56-7.68s0.962-5.567 2.583-7.712l-0.023 0.032c53.333-74.667 203.947-248.32 445.44-248.32s391.68 173.653 445.44 248.32c1.598 2.113 2.56 4.784 2.56 7.68s-0.962 5.567-2.583 7.712l0.023-0.032c-53.333 74.667-204.373 248.32-445.44 248.32zM285.44 180.053c-8.607 0.098-16.403 3.492-22.202 8.975l0.016-0.015c-5.782 5.789-9.359 13.784-9.359 22.613s3.576 16.824 9.359 22.614v0l452.267 471.893c5.214 3.837 11.763 6.141 18.849 6.141 17.673 0 32-14.327 32-32 0-6.222-1.776-12.029-4.848-16.942l0.078 0.134-453.12-473.6c-5.763-6.051-13.881-9.814-22.878-9.814-0.057 0-0.114 0-0.171 0h0.009zM512 256c-17.673 0-32 14.327-32 32s14.327 32 32 32v0c70.692 0 128 57.308 128 128v0c0 17.673 14.327 32 32 32s32-14.327 32-32v0c-0.242-105.941-86.059-191.758-191.977-192h-0.023zM352 416c-17.577 0.237-31.763 14.423-32 31.977v0.023c0.242 105.941 86.059 191.758 191.977 192h0.023c17.673 0 32-14.327 32-32s-14.327-32-32-32v0c-70.692 0-128-57.308-128-128v0c-0.237-17.577-14.423-31.763-31.977-32h-0.023z" />
<glyph unicode="&#xe91c;" glyph-name="bookmark" horiz-adv-x="768" d="M704.293-64.427v0c-0.047 0-0.103 0-0.16 0-13.888 0-26.729 4.481-37.157 12.077l0.181-0.125-263.79 192.080c-5.201 3.805-11.725 6.088-18.781 6.088s-13.58-2.283-18.872-6.151l0.091 0.063-263.79-192.080c-10.396-7.493-23.39-11.984-37.433-11.984-21.14 0-39.904 10.178-51.657 25.901l-0.121 0.169c-7.991 10.42-12.805 23.641-12.805 37.987 0 0.001 0 0.002 0 0.003v0 864.36c0 53.041 42.999 96.040 96.040 96.040v0h576.24c53.041 0 96.040-42.999 96.040-96.040v0-864.36c0-35.361-28.666-64.027-64.027-64.027v0zM96.040 895.973c-17.584-0.237-31.776-14.429-32.013-31.991v-864.383l263.79 192.080c15.603 11.415 35.174 18.264 56.343 18.264s40.74-6.85 56.615-18.453l-0.272 0.189 263.79-191.653v863.933c-0.237 17.584-14.429 31.776-31.991 32.013h-0.023zM320.133 351.747c-17.657 0.115-33.622 7.266-45.25 18.786l-73.412 73.412c-6.064 5.902-9.827 14.143-9.827 23.263 0 17.921 14.528 32.449 32.449 32.449 8.801 0 16.784-3.504 22.63-9.193l-0.007 0.007 73.417-74.698 234.764 233.484c4.547 2.631 10.004 4.184 15.823 4.184 17.68 0 32.013-14.333 32.013-32.013 0-6.475-1.922-12.5-5.227-17.537l0.075 0.122-232.203-233.484c-11.576-11.59-27.571-18.765-45.242-18.781h-0.003z" />
<glyph unicode="&#xe91d;" glyph-name="like" d="M512-8.107c-9.019 0.157-17.14 3.879-23.038 9.812l-0.002 0.002-409.173 424.96c-49.756 49.809-80.527 118.591-80.527 194.56 0 152.044 123.256 275.3 275.3 275.3 76.075 0 144.943-30.857 194.771-80.738l42.669-42.669 42.667 42.667c49.792 49.792 118.58 80.589 194.56 80.589 151.961 0 275.149-123.189 275.149-275.149 0-75.98-30.797-144.768-80.589-194.56v0l-408.747-426.667c-5.692-5.056-13.231-8.144-21.49-8.144-0.545 0-1.087 0.013-1.626 0.040l0.076-0.003zM274.347 832c-115.241-0.912-208.309-94.544-208.309-209.914 0-58.205 23.689-110.878 61.952-148.902l0.011-0.011 384-402.773 386.133 402.347c38.595 38.151 62.496 91.094 62.496 149.62 0 34.098-8.113 66.3-22.514 94.783l0.551-1.203c-10.501 21.059-23.622 39.087-39.242 54.602l-0.011 0.011c-38.075 38.527-90.918 62.387-149.333 62.387s-111.258-23.86-149.313-62.367l-66.153-67.007c-5.786-5.793-13.78-9.379-22.612-9.387h-0.002c-8.833 0.008-16.828 3.594-22.613 9.386v0l-66.56 66.987c-15.68 15.658-33.665 29.015-53.399 39.517l-1.214 0.59c-27.17 13.46-59.162 21.335-92.994 21.335-0.307 0-0.614-0.001-0.921-0.002h0.047z" />
<glyph unicode="&#xe91e;" glyph-name="sweet" horiz-adv-x="731" d="M281.983 289.97c-52.748 0.561-97.061 36.027-110.972 84.368l-0.203 0.824c-2.565 9.288-4.11 19.979-4.259 31.006l-0.001 0.088v144.825c0.713 32.161 14.28 61.020 35.746 81.751l0.034 0.033c20.439 19.791 48.333 31.99 79.077 31.99 1.102 0 2.2-0.016 3.294-0.047l-0.161 0.004c61.68-1.617 111.261-51.199 112.875-112.727l0.003-0.152v-127.787c0-17.644-14.303-31.947-31.947-31.947s-31.947 14.303-31.947 31.947v0 127.787c-1.576 26.838-23.3 48.118-50.18 48.983l-0.082 0.002c-0.751 0.043-1.629 0.067-2.513 0.067-13.401 0-25.5-5.576-34.104-14.533l-0.015-0.016c-9.692-8.953-15.843-21.616-16.185-35.719l-0.001-0.061v-144.399c-0.294-2.111-0.462-4.55-0.462-7.028s0.168-4.917 0.493-7.306l-0.031 0.278c5.687-22.744 25.943-39.324 50.072-39.324 6.336 0 12.404 1.143 18.011 3.235l-0.356-0.116c2.617 0.769 5.623 1.211 8.732 1.211 17.724 0 32.093-14.368 32.093-32.093 0-14.615-9.769-26.948-23.134-30.826l-0.227-0.056c-9.307-2.723-19.999-4.289-31.056-4.289-0.912 0-1.822 0.011-2.729 0.032l0.135-0.002zM532.020 394.329c-17.644 0-31.947 14.303-31.947 31.947v0 124.805c-0.923 27.293-22.931 49.153-50.198 49.836l-0.065 0.001c-0.647 0.031-1.406 0.049-2.169 0.049-13.506 0-25.712-5.563-34.454-14.522l-0.010-0.010c-9.573-8.985-15.588-21.664-15.76-35.749v-124.41c0-17.644-14.303-31.947-31.947-31.947s-31.947 14.303-31.947 31.947v0 124.805c3.803 60.664 53.935 108.425 115.221 108.425s111.418-47.761 115.205-108.093l0.017-0.332v-125.657c-0.475-17.273-14.591-31.095-31.935-31.095-0.004 0-0.008 0-0.012 0h0.001zM698.569 240.985c-17.548 0.237-31.71 14.399-31.947 31.924v569.952c0.028 0.637 0.045 1.385 0.045 2.136 0 27.946-22.427 50.654-50.265 51.108l-0.043 0.001c-0.508 0.018-1.106 0.029-1.705 0.029-27.855 0-50.462-22.468-50.687-50.27v-294.783c0-17.644-14.303-31.947-31.947-31.947s-31.947 14.303-31.947 31.947v0 296.040c1.174 62.612 52.207 112.918 114.989 112.918 1.055 0 2.107-0.014 3.155-0.042l-0.155 0.003c62.514-1.886 112.473-53.014 112.473-115.811 0-0.766-0.007-1.531-0.022-2.294l0.002 0.114v-569.078c0-17.644-14.303-31.947-31.947-31.947v0zM365.471-62.296c-0.002 0-0.004 0-0.006 0-201.095 0-364.256 162.415-365.464 363.226l-0.001 0.115v458.329c2.358 61.892 53.102 111.173 115.356 111.173 60.604 0 110.299-46.702 115.061-106.081l0.026-0.407v-212.978c0-17.644-14.303-31.947-31.947-31.947s-31.947 14.303-31.947 31.947v0 208.293c0.022 0.56 0.034 1.217 0.034 1.877 0 14.633-6.048 27.854-15.781 37.298l-0.013 0.013c-8.903 8.719-21.104 14.1-34.563 14.1-0.728 0-1.452-0.016-2.172-0.047l0.103 0.004c-27.913-0.71-50.27-23.507-50.27-51.525 0-0.305 0.003-0.609 0.008-0.913l-0.001 0.046v-459.181c0.242-166.373 135.17-301.151 301.577-301.151v0c184.013 0 301.151 161.864 301.151 273.038-1.621 39.486-21.998 73.891-52.407 94.722l-0.412 0.266c-22.133 16.496-50.017 26.41-80.216 26.41-0.102 0-0.204 0-0.305 0h-146.939c-27.293-0.923-49.153-22.931-49.836-50.198l-0.001-0.065c-0.006-0.29-0.009-0.632-0.009-0.974 0-13.875 5.528-26.459 14.502-35.669l-0.011 0.011c8.985-9.573 21.664-15.588 35.749-15.76h145.282c17.644 0 31.947-14.303 31.947-31.947s-14.303-31.947-31.947-31.947v0c-0.119 0-0.26 0.001-0.401 0.001-37.152 0-70.767-15.148-95.004-39.605l-0.010-0.010c-24.22-24.399-39.188-58.010-39.188-95.118 0-0.104 0-0.209 0-0.313v0.016c0-17.644-14.303-31.947-31.947-31.947s-31.947 14.303-31.947 31.947v0c0 0.010 0 0.021 0 0.033 0 52.168 20.082 99.646 52.937 135.125l-0.119-0.13c-60.664 3.803-108.425 53.935-108.425 115.221s47.761 111.418 108.093 115.205l0.332 0.017h147.807c0.059 0 0.13 0 0.2 0 44.078 0 84.835-14.214 117.939-38.309l-0.575 0.399c46.8-32.736 77.567-85.619 79.645-145.789l0.009-0.314c-15.689-189.032-172.98-336.508-364.715-336.508-0.416 0-0.831 0.001-1.246 0.002h0.064z" />
<glyph unicode="&#xe91f;" glyph-name="discover" d="M224 155.307c-123.712 0-224 100.288-224 224s100.288 224 224 224c123.712 0 224-100.288 224-224v0c-0.242-123.614-100.386-223.758-223.977-224h-0.023zM224 539.307c-88.366 0-160-71.634-160-160s71.634-160 160-160c88.366 0 160 71.634 160 160v0c0 88.366-71.634 160-160 160v0zM32 603.733c-0.063 0-0.139-0.001-0.214-0.001-10.369 0-19.571 4.998-25.327 12.717l-0.060 0.083c-3.398 5.004-5.426 11.179-5.426 17.827 0 9.998 4.586 18.926 11.768 24.794l0.057 0.045c39.485 31.055 86.815 54.068 138.457 65.69l2.343 0.443c2.963 1 6.375 1.577 9.922 1.577 17.673 0 32-14.327 32-32 0-16.66-12.731-30.346-28.995-31.861l-0.127-0.010c-44.088-9.532-82.822-27.961-115.876-53.407l0.676 0.5c-5.232-3.995-11.864-6.4-19.058-6.4-0.050 0-0.1 0-0.15 0h0.008zM992 603.733c-0.042 0-0.092 0-0.142 0-7.194 0-13.825 2.406-19.134 6.457l0.077-0.056c-32.419 24.641-71.166 42.79-113.318 51.72l-1.882 0.334c-14.615 2.755-25.523 15.421-25.523 30.635 0 2.451 0.283 4.835 0.818 7.123l-0.042-0.211c2.631 15.004 15.563 26.26 31.123 26.26 2.274 0 4.493-0.24 6.631-0.697l-0.207 0.037c53.849-11.396 101.209-33.709 141.646-64.621l-0.846 0.621c7.24-5.914 11.826-14.841 11.826-24.839 0-6.648-2.027-12.823-5.497-17.939l0.072 0.112c-5.443-8.691-14.799-14.493-25.538-14.931l-0.062-0.002zM800 155.307c-123.712 0-224 100.288-224 224s100.288 224 224 224c123.712 0 224-100.288 224-224v0c-0.242-123.614-100.386-223.758-223.977-224h-0.023zM800 539.307c-88.366 0-160-71.634-160-160s71.634-160 160-160c88.366 0 160 71.634 160 160v0c0 88.366-71.634 160-160 160v0zM608 347.307h-192c-17.673 0-32 14.327-32 32s14.327 32 32 32v0h192c17.673 0 32-14.327 32-32s-14.327-32-32-32v0z" />
<glyph unicode="&#xe920;" glyph-name="comment" d="M147.549-7.68c-0.118 0-0.257 0-0.397 0-17.637 0-34.878 1.694-51.569 4.929l1.697-0.274c-22.69 1.779-41.718 15.832-50.581 35.459l-0.154 0.381c-2.018 5.019-3.189 10.839-3.189 16.931 0 11.286 4.017 21.633 10.698 29.691l-0.062-0.077c4.609 6.201 11.217 10.688 18.858 12.522l0.225 0.046c25.987 6.65 47.158 23.561 59.335 46.053l0.244 0.492c7.494 13.115 11.913 28.823 11.913 45.564 0 5.278-0.439 10.452-1.283 15.49l0.075-0.545c-84.641 66.852-139.528 168.147-143.344 282.38l-0.016 0.616c0 225.28 224.349 408.204 500.364 408.204s500.829-181.993 500.829-405.411-224.349-407.273-500.364-407.273v0c-40.515 0.004-80.078 4.071-118.307 11.815l3.805-0.644c-63.482-56.68-146.607-92.558-238.018-96.324l-0.76-0.025zM500.364 820.364c-237.382 0-430.545-151.273-430.545-337.455 2.825-97.488 51.135-183.131 124.355-236.786l0.852-0.596c6.413-4.515 11.074-11.145 12.986-18.86l0.047-0.224c4.088-13.442 6.441-28.892 6.441-44.891 0-29.024-7.745-56.239-21.281-79.691l0.41 0.771c-8.649-15.212-19.014-28.247-31.085-39.471l-0.1-0.092c70.562 8.378 132.955 38.18 181.79 82.621l-0.263-0.236c1.844 2.689 3.998 4.991 6.451 6.932l0.065 0.050c6.263 5.282 14.423 8.491 23.334 8.491 2.282 0 4.515-0.211 6.68-0.613l-0.224 0.035c35.777-8.509 76.874-13.423 119.106-13.498h0.050c238.778-1.396 431.476 151.738 431.476 337.92s-192.698 335.593-430.545 335.593z" />
<glyph unicode="&#xe921;" glyph-name="linkedin" d="M992.853-32h-228.267c-0.128-0.002-0.279-0.003-0.43-0.003-17.437 0-31.573 14.136-31.573 31.573 0 0.151 0.001 0.302 0.003 0.452v-0.023 309.333c-0.242 32.806-26.892 59.307-59.732 59.307-0.001 0-0.001 0-0.002 0v0c-32.754 0-59.307-26.552-59.307-59.307v0-309.333c-0.237-17.577-14.423-31.763-31.977-32h-218.050c-17.577 0.237-31.763 14.423-32 31.977v594.37c0.237 17.577 14.423 31.763 31.977 32h218.050c17.577-0.237 31.763-14.423 32-31.977v-7.276c43.225 24.185 94.692 38.781 149.492 39.677l0.268 0.003c161.707 0 261.547-123.733 261.547-322.56v-304.213c0.002-0.128 0.003-0.279 0.003-0.43 0-17.437-14.136-31.573-31.573-31.573-0.151 0-0.302 0.001-0.452 0.003h0.023zM796.587 32h164.267v272.213c0 164.267-71.68 258.56-197.12 258.56-61.875-1.149-118.233-23.858-162.090-60.903l0.384 0.316c-5.541-4.917-12.877-7.92-20.914-7.92-17.437 0-31.573 14.136-31.573 31.573 0 0.234 0.003 0.468 0.008 0.701l-0.001-0.035v35.84h-154.027v-530.347h154.027v277.333c0 68.1 55.206 123.307 123.307 123.307v0 0c0 0 0.001 0 0.001 0 68.186 0 123.49-55.154 123.733-123.284v-0.023zM241.92-32h-206.933c-17.577 0.237-31.763 14.423-32 31.977v594.37c0.237 17.577 14.423 31.763 31.977 32h207.383c17.577-0.237 31.763-14.423 32-31.977v-594.37c-0.237-17.577-14.423-31.763-31.977-32h-0.023zM66.56 32h143.787v530.347h-143.36zM138.667 661.333c-76.583 0-138.667 62.083-138.667 138.667s62.083 138.667 138.667 138.667c76.583 0 138.667-62.083 138.667-138.667v0c-0.242-76.486-62.181-138.425-138.643-138.667h-0.023zM138.667 874.667c-41.237 0-74.667-33.429-74.667-74.667s33.429-74.667 74.667-74.667c41.237 0 74.667 33.429 74.667 74.667v0c-0.241 41.14-33.526 74.426-74.644 74.667h-0.023z" />
<glyph unicode="&#xe922;" glyph-name="instagram" d="M736-64h-448c-158.96 0.243-287.757 129.040-288 287.977v448.023c0.243 158.96 129.040 287.757 287.977 288h448.023c158.96-0.243 287.757-129.040 288-287.977v-448.023c-0.243-158.96-129.040-287.757-287.977-288h-0.023zM288 896c-123.614-0.242-223.758-100.386-224-223.977v-448.023c0.242-123.614 100.386-223.758 223.977-224h448.023c123.614 0.242 223.758 100.386 224 223.977v448.023c-0.242 123.614-100.386 223.758-223.977 224h-0.023zM512 202.667c-135.494 0-245.333 109.839-245.333 245.333s109.839 245.333 245.333 245.333c135.494 0 245.333-109.839 245.333-245.333v0c-0.242-135.396-109.937-245.091-245.31-245.333h-0.023zM512 629.333c-100.148 0-181.333-81.186-181.333-181.333s81.186-181.333 181.333-181.333c100.148 0 181.333 81.186 181.333 181.333v0c0 100.148-81.186 181.333-181.333 181.333v0zM804.267 686.933c-29.455 0-53.333 23.878-53.333 53.333v0c0.237 17.577 14.423 31.763 31.977 32h0.023c0.062 0 0.136 0.001 0.209 0.001 8.136 0 15.554-3.078 21.152-8.132l-0.028 0.025c5.57 5.030 12.988 8.107 21.124 8.107 0.074 0 0.147 0 0.221-0.001h-0.011c17.577-0.237 31.763-14.423 32-31.977v-0.023c0-29.455-23.878-53.333-53.333-53.333v0zM825.6 708.267c-0.062 0-0.136-0.001-0.209-0.001-8.136 0-15.554 3.078-21.152 8.132l0.028-0.025c-5.57-5.030-12.988-8.107-21.124-8.107-0.074 0-0.147 0-0.221 0.001h0.011c-17.577 0.237-31.763 14.423-32 31.977v0.023c0 29.455 23.878 53.333 53.333 53.333s53.333-23.878 53.333-53.333v0c-0.237-17.577-14.423-31.763-31.977-32h-0.023z" />
<glyph unicode="&#xe923;" glyph-name="pinterest" horiz-adv-x="811" d="M201.716-64c-0.017 0-0.038 0-0.058 0-9.598 0-18.402 3.395-25.279 9.049l0.069-0.055c-7.577 6.593-12.647 15.897-13.691 26.385l-0.014 0.168c-5.859 32.705-9.209 70.352-9.209 108.781s3.35 76.076 9.773 112.665l-0.565-3.884 71.093 299.791c2.57 66.382 17.131 153.322 71.522 195.292 19.665 14.56 44.4 23.306 71.178 23.306 11.558 0 22.735-1.629 33.314-4.671l-0.849 0.209c30.783-4.647 56.528-22.912 71.268-48.348l0.254-0.475c23.555-46.253-2.141-104.499-24.84-156.32-8.002-16.211-15.71-35.654-21.922-55.755l-0.777-2.919c-1.709-5.152-2.694-11.083-2.694-17.244 0-9.334 2.262-18.14 6.269-25.9l-0.148 0.316c4.924-5.165 11.858-8.377 19.541-8.377 1.264 0 2.509 0.087 3.727 0.255l-0.141-0.016c70.237 0 124.627 101.072 124.627 230.411 0 96.79-66.382 157.176-173.45 157.176h-11.563c-110.485-1.204-199.587-91.049-199.587-201.705 0-0.757 0.004-1.513 0.012-2.268l-0.001 0.115c0.085-14.508 2.112-28.507 5.833-41.798l-0.266 1.112c1.117-3.193 1.762-6.875 1.762-10.707s-0.645-7.514-1.833-10.941l0.071 0.235-56.96-135.762c-5.083-11.756-16.579-19.832-29.962-19.832-7.638 0-14.661 2.631-20.213 7.036l0.067-0.052c-60.388 48.275-98.736 121.933-98.736 204.548 0 6.539 0.24 13.021 0.712 19.439l-0.051-0.858c0 183.729 160.602 375.595 428.273 375.595 239.404 0 382.448-177.305 382.448-349.042 0-248.826-148.182-443.691-337.479-443.691-1.588-0.048-3.456-0.076-5.331-0.076-42.788 0-82.223 14.359-113.748 38.521l0.447-0.329c-6.852-26.125-14.561-53.534-17.559-65.526-25.416-72.39-60.715-135.022-105.026-190.097l0.956 1.228c-6.532-8.544-16.453-14.212-27.72-14.983l-0.118-0.006zM225.7-17.318c0.095-0.386 0.15-0.829 0.15-1.285s-0.055-0.899-0.158-1.323l0.008 0.038c0.095 0.386 0.15 0.829 0.15 1.285s-0.055 0.899-0.158 1.323l0.008-0.038zM182.872-7.896v-2.57zM376.023 643.935c-0.465 0.016-1.011 0.025-1.56 0.025-11.262 0-21.618-3.881-29.803-10.38l0.099 0.076c-26.981-20.985-42.827-77.089-47.11-149.895 0.198-0.966 0.312-2.076 0.312-3.212s-0.113-2.246-0.33-3.319l0.018 0.107-71.093-299.791c-5.121-29.435-8.048-63.331-8.048-97.911 0-13.317 0.434-26.533 1.289-39.634l-0.093 1.783c21.685 33.734 40.523 72.529 54.549 113.555l1.126 3.792c6.424 22.698 31.692 117.347 31.692 117.347 3.152 12.227 13.117 21.475 25.512 23.53l0.184 0.025c1.654 0.31 3.557 0.488 5.501 0.488 10.917 0 20.527-5.596 26.119-14.075l0.073-0.117c23.020-33.061 60.841-54.426 103.651-54.426 1.051 0 2.099 0.013 3.144 0.038l-0.155-0.003c151.609 0 274.095 171.309 274.095 379.45 0 140.045-119.060 284.801-318.207 284.801-250.54 0-363.604-183.301-363.604-313.496-0.315-4.23-0.495-9.162-0.495-14.137 0-47.405 16.318-90.999 43.643-125.471l-0.321 0.419 33.834 81.372c-3.54 13.908-5.571 29.874-5.571 46.315 0 0.43 0.001 0.86 0.004 1.29v-0.066c-0.004 0.511-0.006 1.116-0.006 1.722 0 146.133 117.859 264.739 263.707 265.948l0.115 0.001h14.133c140.473 0 235.978-89.081 235.978-221.417 0-171.309-79.23-294.652-188.868-294.652-1.518-0.091-3.293-0.144-5.080-0.144-27.658 0-52.4 12.485-68.898 32.126l-0.113 0.138c-12.69 18.38-20.269 41.136-20.269 65.662 0 11.862 1.773 23.31 5.069 34.094l-0.217-0.825c8.072 27.497 17.102 50.793 27.804 73.136l-1.251-2.9c14.99 34.69 35.975 81.8 26.125 101.072-4.283 8.565-17.559 12.848-28.266 15.418-5.447 1.18-11.782 1.95-18.264 2.138l-0.152 0.003z" />
<glyph unicode="&#xe924;" glyph-name="twitter" d="M372.907 27.307c-128.898 2.551-250.159 32.646-358.974 84.612l5.267-2.265c-11.793 4.755-19.964 16.104-19.964 29.362 0 2.448 0.278 4.83 0.806 7.118l-0.041-0.213c3.899 14.364 16.821 24.754 32.169 24.754 0.241 0 0.48-0.003 0.72-0.008l-0.036 0.001c3.309-0.086 7.205-0.135 11.113-0.135 62.953 0 122.928 12.754 177.481 35.819l-2.993-1.124c-66.74 10.789-121.805 52.75-150.507 110.183l-0.533 1.177c-1.826 3.813-2.892 8.289-2.892 13.013s1.067 9.2 2.972 13.199l-0.080-0.186c3.359 8.303 9.72 14.802 17.705 18.264l0.215 0.083 27.733 9.813c-61.282 35.010-104.054 96.401-112.956 168.29l-0.111 1.096c-0.19 1.294-0.299 2.788-0.299 4.307 0 8.878 3.714 16.888 9.673 22.561l0.013 0.012c5.678 5.515 13.436 8.915 21.988 8.915 1.727 0 3.422-0.139 5.074-0.405l-0.181 0.024 61.44-8.96c-19.385 40.948-30.702 88.961-30.702 139.617 0 27.83 3.416 54.863 9.852 80.701l-0.483-2.291c2.422 12.471 11.453 22.355 23.228 25.964l0.239 0.063c2.431 0.644 5.221 1.014 8.099 1.014 9.857 0 18.701-4.341 24.722-11.216l0.032-0.038c123.307-140.373 232.96-199.68 349.013-186.453v15.36c-0.006 0.59-0.009 1.287-0.009 1.984 0 122.769 99.524 222.293 222.293 222.293 51.886 0 99.619-17.776 137.443-47.571l-0.474 0.36 91.733 30.293c3.104 1.121 6.686 1.769 10.419 1.769 9.433 0 17.899-4.136 23.685-10.694l0.030-0.034c5.082-5.525 8.198-12.928 8.198-21.059 0-4.91-1.136-9.554-3.159-13.685l0.081 0.184-33.28-72.533 59.733-25.6c11.303-5.103 19.026-16.276 19.026-29.252 0-10.544-5.099-19.897-12.967-25.727l-0.086-0.061-76.373-55.467v-19.2c-1.297-187.628-97.68-352.466-243.318-448.879l-2.016-1.254c-85.388-55.163-189.723-87.951-301.716-87.951-2.828 0-5.652 0.021-8.471 0.063l0.426-0.005zM170.667 122.027c226.987-67.413 384-15.36 478.72 46.507 130.093 86.166 215.034 231.426 216.319 396.606l0.001 0.194v35.413c0.107 10.628 5.245 20.035 13.142 25.966l0.085 0.061 42.667 31.573-37.973 16.213c-7.864 3.504-13.934 9.85-16.992 17.702l-0.075 0.218c-1.62 3.646-2.563 7.9-2.563 12.373s0.943 8.727 2.642 12.573l-0.079-0.199 16.213 35.84-39.253-13.227c-3.156-1.094-6.794-1.726-10.579-1.726-8.58 0-16.401 3.247-22.303 8.579l0.029-0.026c-28.196 26.344-66.184 42.52-107.951 42.52-87.423 0-158.293-70.87-158.293-158.293 0-0.399 0.001-0.797 0.004-1.195v0.061-42.667c-0.102-15.322-10.957-28.080-25.392-31.11l-0.208-0.037c-130.56-27.733-257.707 21.76-386.56 150.187-0.473-5.091-0.743-11.009-0.743-16.99 0-56.264 23.883-106.95 62.064-142.474l0.119-0.11c6.529-5.882 10.615-14.367 10.615-23.805 0-17.673-14.327-32-32-32-1.638 0-3.247 0.123-4.818 0.36l0.177-0.022-92.587 14.080c23.396-55.863 75.709-95.318 137.716-99.81l0.524-0.030c1.668 0.304 3.587 0.477 5.547 0.477 17.937 0 32.477-14.541 32.477-32.477 0-15.977-11.537-29.259-26.734-31.971l-0.197-0.029-79.787-29.013c34.133-40.107 87.467-51.2 177.92-58.453 16.564-1.338 29.499-15.109 29.499-31.902 0-11.010-5.561-20.722-14.027-26.48l-0.111-0.071c-47.847-32.649-103.717-57.947-163.744-72.659l-3.51-0.727z" />
<glyph unicode="&#xe925;" glyph-name="facebook" horiz-adv-x="587" d="M373.178-63.574h-213.244c-17.424 0.23-31.516 14.174-31.986 31.516l-0.001 0.044v458.476h-95.96c-17.57 0.237-31.75 14.417-31.986 31.964v170.619c0 0.001 0 0.002 0 0.003 0 17.751 14.27 32.17 31.964 32.41h95.983v59.282c0 115.579 60.561 239.26 231.157 239.26h184.67c17.57-0.237 31.75-14.417 31.986-31.964v-170.619c-0.237-17.57-14.417-31.75-31.964-31.986h-127.97c-3.375-0.071-6.395-1.532-8.523-3.831l-0.007-0.008c-1.352-1.909-2.161-4.286-2.161-6.851 0-0.29 0.010-0.578 0.031-0.864l-0.002 0.038v-52.458h149.271c9.453-0.1 17.933-4.179 23.862-10.638l0.022-0.024c5.13-5.652 8.271-13.191 8.271-21.464 0-1.152-0.061-2.291-0.18-3.412l0.012 0.14-17.486-170.596c-1.976-16.106-15.521-28.471-31.976-28.575h-131.796v-458.902c-0.471-17.387-14.563-31.33-31.965-31.56h-0.022zM191.92-0.027h149.271v458.476c0 0.001 0 0.002 0 0.003 0 17.751 14.27 32.17 31.964 32.41h135.22l11.089 106.622h-146.286c-17.424 0.23-31.516 14.174-31.986 31.516l-0.001 0.044v81.459c-0.133 1.633-0.208 3.536-0.208 5.456 0 17.63 6.367 33.773 16.928 46.254l-0.087-0.105c12.205 15.001 29.91 25.119 49.998 27.267l0.328 0.028h103.637v106.622h-152.683c-145.859 0-167.184-110.034-167.184-175.287v-91.695c-0.237-17.57-14.417-31.75-31.964-31.986h-95.983v-106.196h95.96c17.57-0.237 31.75-14.417 31.986-31.964v-0.023z" />
<glyph unicode="&#xe926;" glyph-name="chevron-down" d="M512 173.227c-17.65 0.115-33.608 7.263-45.232 18.778l-457.382 457.382c-5.321 5.699-8.588 13.376-8.588 21.815 0 17.673 14.327 32 32 32 8.44 0 16.116-3.267 21.834-8.606l-0.019 0.017 457.387-457.387 457.387 457.387c5.699 5.321 13.376 8.588 21.815 8.588 17.673 0 32-14.327 32-32 0-8.44-3.267-16.116-8.606-21.834l0.017 0.019-457.387-457.387c-11.572-11.586-27.56-18.757-45.224-18.773h-0.003z" />
<glyph unicode="&#xe927;" glyph-name="chevron-left" horiz-adv-x="531" d="M498.773-64c-0.044 0-0.097 0-0.149 0-8.788 0-16.737 3.59-22.461 9.384l-457.39 457.39c-11.586 11.572-18.757 27.56-18.773 45.224v0.003c-0.001 0.141-0.002 0.308-0.002 0.476 0 17.52 7.184 33.362 18.766 44.742l457.396 457.396c5.858 6.274 14.178 10.185 23.412 10.185 17.673 0 32-14.327 32-32 0-9.234-3.911-17.554-10.166-23.394l-0.019-0.017-457.387-457.387 457.387-457.387c5.782-5.789 9.359-13.784 9.359-22.613s-3.576-16.824-9.359-22.614v0c-5.727-5.797-13.676-9.387-22.464-9.387-0.052 0-0.105 0-0.157 0h0.008z" />
<glyph unicode="&#xe928;" glyph-name="arrow-right" d="M992 426.667h-960c-17.673 0-32 14.327-32 32s14.327 32 32 32v0h960c17.673 0 32-14.327 32-32s-14.327-32-32-32v0zM544-21.333c-0.044 0-0.097 0-0.149 0-8.788 0-16.737 3.59-22.461 9.384l-0.003 0.003c-5.782 5.789-9.359 13.784-9.359 22.613s3.576 16.824 9.359 22.614v0l426.667 426.667-426.667 426.667c-2.63 4.546-4.182 10-4.182 15.816 0 17.673 14.327 32 32 32 6.472 0 12.495-1.921 17.53-5.224l-0.121 0.075 448-448c5.782-5.789 9.359-13.784 9.359-22.613s-3.576-16.824-9.359-22.614v0l-448-448c-5.727-5.797-13.676-9.387-22.464-9.387-0.052 0-0.105 0-0.157 0h0.008z" />
<glyph unicode="&#xe929;" glyph-name="arrow-left" d="M992 426.667h-960c-17.673 0-32 14.327-32 32s14.327 32 32 32v0h960c17.673 0 32-14.327 32-32s-14.327-32-32-32v0zM480-21.333c-0.044 0-0.097 0-0.149 0-8.788 0-16.737 3.59-22.461 9.384l-448.003 448.003c-5.782 5.789-9.359 13.784-9.359 22.613s3.576 16.824 9.359 22.614v0l448 448c5.699 5.321 13.376 8.588 21.815 8.588 17.673 0 32-14.327 32-32 0-8.44-3.267-16.116-8.606-21.834l0.017 0.019-426.667-426.667 426.667-426.667c5.782-5.789 9.359-13.784 9.359-22.613s-3.576-16.824-9.359-22.614v0c-5.36-4.332-12.258-6.955-19.769-6.955-1.001 0-1.992 0.047-2.969 0.138l0.125-0.009z" />
<glyph unicode="&#xe92a;" glyph-name="chevron-up" d="M992 173.227c-0.044 0-0.097 0-0.149 0-8.788 0-16.737 3.59-22.461 9.384l-457.39 457.39-457.387-457.387c-5.858-6.274-14.178-10.185-23.412-10.185-17.673 0-32 14.327-32 32 0 9.234 3.911 17.554 10.166 23.394l0.019 0.017 457.387 457.387c11.579 11.565 27.568 18.717 45.227 18.717s33.648-7.152 45.227-18.718l457.386-457.386c5.782-5.789 9.359-13.784 9.359-22.613s-3.576-16.824-9.359-22.614v0c-5.727-5.797-13.676-9.387-22.464-9.387-0.052 0-0.105 0-0.157 0h0.008z" />
<glyph unicode="&#xe92b;" glyph-name="chevron-right" horiz-adv-x="531" d="M32-64c-0.044 0-0.097 0-0.149 0-8.788 0-16.737 3.59-22.461 9.384l-0.003 0.003c-5.782 5.789-9.359 13.784-9.359 22.613s3.576 16.824 9.359 22.614v0l457.387 457.387-457.387 457.387c-5.321 5.699-8.588 13.376-8.588 21.815 0 17.673 14.327 32 32 32 8.44 0 16.116-3.267 21.834-8.606l-0.019 0.017 457.387-457.387c11.565-11.579 18.717-27.568 18.717-45.227s-7.152-33.648-18.718-45.227l-457.386-457.386c-5.727-5.797-13.676-9.387-22.464-9.387-0.052 0-0.105 0-0.157 0h0.008z" />
<glyph unicode="&#xe92c;" glyph-name="home" d="M950.187-64h-876.373c-40.669 0.24-73.573 33.144-73.813 73.79v534.21c1.173 22.75 11.086 42.98 26.418 57.566l0.036 0.034 466.347 352c5.281 3.996 11.96 6.4 19.2 6.4s13.919-2.404 19.28-6.458l-0.080 0.058 463.787-349.867c16.421-14.375 27.248-34.788 28.996-57.738l0.018-0.288v-535.893c0 0 0-0.001 0-0.001 0-40.616-32.805-73.57-73.364-73.812h-0.023zM512 887.893l-444.587-335.36c-2.13-2.768-3.414-6.283-3.414-10.098 0-0.050 0-0.1 0.001-0.15v0.008-532.48c0-5.42 4.394-9.813 9.813-9.813v0h876.373c5.42 0 9.813 4.394 9.813 9.813v0 534.187c-0.757 4.28-2.905 7.963-5.953 10.649l-0.020 0.017z" />
<glyph unicode="&#xe92d;" glyph-name="tags" horiz-adv-x="1011" d="M977.271 420.816c-0.047 0-0.102 0-0.157 0-9.254 0-17.626 3.781-23.654 9.882l-461.904 461.904h-323.061c-18.51 0.25-33.449 15.189-33.699 33.675v0.024c0.25 18.51 15.189 33.449 33.675 33.699h337.014c9.302-0.008 17.721-3.785 23.814-9.885v0l471.786-471.786c6.089-6.097 9.855-14.516 9.855-23.814s-3.766-17.717-9.856-23.814v0c-6.031-6.105-14.403-9.885-23.657-9.885-0.055 0-0.11 0-0.165 0h0.008zM512.674-64c-0.084 0-0.184 0-0.284 0-27.822 0-52.995 11.339-71.151 29.649l-0.007 0.007-411.577 410.229c-18.322 18.026-29.675 43.088-29.675 70.801 0 0.699 0.007 1.397 0.022 2.092l-0.002-0.104v275.433c0 55.834 45.263 101.097 101.097 101.097v0h275.433c0.263 0.002 0.573 0.004 0.884 0.004 28.058 0 53.47-11.33 71.911-29.664l411.572-411.572c10.053-9.887 18.001-21.879 23.135-35.265l0.229-0.68c3.934-10.423 6.212-22.471 6.212-35.052 0-43.216-26.878-80.155-64.829-95.012l-0.693-0.239-157.262-58.861-58.861-157.262c-5.246-14.108-13.214-26.122-23.338-35.92l-0.026-0.025c-18.164-18.324-43.342-29.668-71.17-29.668-0.569 0-1.138 0.005-1.705 0.014l0.086-0.001zM101.097 757.806c-18.51-0.25-33.449-15.189-33.699-33.675v-275.457c0.008-9.302 3.785-17.721 9.885-23.814v0l411.577-411.577c6.097-6.089 14.516-9.855 23.814-9.855s17.717 3.766 23.814 9.856v0c3.527 3.198 6.178 7.301 7.589 11.944l0.049 0.188 64.702 170.742c3.148 9.377 10.393 16.622 19.551 19.706l0.219 0.064 171.64 64.253c12.986 4.878 22.059 17.192 22.059 31.625 0 4.81-1.008 9.384-2.823 13.523l0.085-0.216c-1.583 4.787-4.211 8.863-7.627 12.121l-0.012 0.011-411.577 410.678c-6.093 6.1-14.512 9.877-23.812 9.885h-0.002zM235.893 538.538c-27.793 0-50.324 22.531-50.324 50.324v0c-0.001 0.107-0.001 0.233-0.001 0.36 0 13.832 5.483 26.384 14.393 35.6l-0.014-0.014c9.189 8.277 21.414 13.339 34.822 13.339s25.634-5.063 34.869-13.381l-0.047 0.042c9.415-8.872 15.277-21.424 15.277-35.345 0-0.053 0-0.106 0-0.159v0.008c-0.22-27.329-21.808-49.544-48.865-50.769l-0.111-0.004zM235.893 605.936c-9.182 0-16.625-7.443-16.625-16.625v0c-0.017-0.274-0.026-0.594-0.026-0.917 0-4.357 1.723-8.312 4.524-11.22l-0.005 0.005c3.185-2.922 7.449-4.712 12.132-4.712s8.946 1.79 12.145 4.724l-0.013-0.012c3.043 3.135 4.924 7.412 4.943 12.128v0.004c-0.251 9.235-7.796 16.625-17.068 16.625-0.002 0-0.004 0-0.006 0v0z" />
<glyph unicode="&#xe92e;" glyph-name="click" horiz-adv-x="662" d="M608-64h-384c-0.063 0-0.139-0.001-0.214-0.001-10.369 0-19.571 4.998-25.327 12.717l-0.060 0.083-164.267 218.88c-11.916 16.007-19.077 36.167-19.077 58 0 53.962 43.745 97.707 97.707 97.707 19.784 0 38.195-5.88 53.58-15.988l-0.37 0.228c1.955-1.090 3.638-2.365 5.121-3.841l-0.001 0.001 20.907-15.787v352c0 53.019 42.981 96 96 96s96-42.981 96-96v0-230.4l153.173-34.133c72.189-16.476 125.244-80.132 125.244-156.179 0-5.101-0.239-10.145-0.705-15.124l0.048 0.637-21.76-239.787c-1.775-16.296-15.397-28.883-31.987-29.013h-0.013zM239.787 0h341.333l16.213 210.773c0.252 2.611 0.396 5.644 0.396 8.711 0 45.598-31.791 83.771-74.417 93.564l-0.646 0.125-177.92 39.68c-14.461 3.239-25.116 15.94-25.173 31.14v256.006c-1.912 16.014-15.413 28.311-31.787 28.311s-29.874-12.297-31.772-28.159l-0.015-0.152v-416c-0.078-12.376-7.076-23.099-17.316-28.502l-0.177-0.085c-4.207-2.176-9.182-3.451-14.456-3.451-7.262 0-13.96 2.419-19.33 6.496l0.079-0.058-72.533 54.613c-5.791 5.005-13.393 8.054-21.707 8.054-18.38 0-33.28-14.9-33.28-33.28 0-8.314 3.049-15.917 8.090-21.75l-0.036 0.042zM288 800c-17.577 0.237-31.763 14.423-32 31.977v96.023c0 17.673 14.327 32 32 32s32-14.327 32-32v0-96c-0.237-17.577-14.423-31.763-31.977-32h-0.023zM416 768c-0.044 0-0.097 0-0.149 0-8.788 0-16.737 3.59-22.461 9.384l-0.003 0.003c-5.782 5.789-9.359 13.784-9.359 22.613s3.576 16.824 9.359 22.614v0l64 64c5.699 5.321 13.376 8.588 21.815 8.588 17.673 0 32-14.327 32-32 0-8.44-3.267-16.116-8.606-21.834l0.017 0.019-64-64c-5.727-5.797-13.676-9.387-22.464-9.387-0.052 0-0.105 0-0.157 0h0.008zM160 768c-0.044 0-0.097 0-0.149 0-8.788 0-16.737 3.59-22.461 9.384l-64.003 64.003c-5.321 5.699-8.588 13.376-8.588 21.815 0 17.673 14.327 32 32 32 8.44 0 16.116-3.267 21.834-8.606l-0.019 0.017 64-64c5.782-5.789 9.359-13.784 9.359-22.613s-3.576-16.824-9.359-22.614v0c-5.727-5.797-13.676-9.387-22.464-9.387-0.052 0-0.105 0-0.157 0h0.008zM544 672h-96c-17.673 0-32 14.327-32 32s14.327 32 32 32v0h96c17.673 0 32-14.327 32-32s-14.327-32-32-32v0zM128 672h-96c-17.673 0-32 14.327-32 32s14.327 32 32 32v0h96c17.673 0 32-14.327 32-32s-14.327-32-32-32v0z" />
<glyph unicode="&#xe92f;" glyph-name="pinter" d="M540.939-41.739c-0.707-0.006-1.542-0.009-2.379-0.009-103.529 0-194.776 52.585-248.49 132.502l-0.679 1.072-160.723 244.87c-10.888 15.839-17.39 35.432-17.39 56.543s6.501 40.703 17.611 56.884l-0.222-0.342 5.343 7.123c18.906 22.297 46.938 36.354 78.254 36.354 24.606 0 47.184-8.678 64.842-23.142l-0.181 0.144 54.317-44.522v434.087c0 55.325 44.849 100.174 100.174 100.174s100.174-44.849 100.174-100.174v0-206.136c9.935 3.558 21.398 5.668 33.337 5.787h0.054c18.442 0 33.391-14.95 33.391-33.391v0c0-18.442 14.95-33.391 33.391-33.391s33.391 14.95 33.391 33.391v0c0.247 18.341 15.050 33.144 33.368 33.391h0.023c0.314 0.004 0.686 0.006 1.057 0.006 34.651 0 65.211-17.515 83.309-44.175l0.225-0.352c14.102 8.049 30.991 12.795 48.988 12.795 55.325 0 100.174-44.849 100.174-100.174 0-0.585-0.005-1.17-0.015-1.753l0.001 0.088v-306.31c0-144.336-117.007-261.343-261.343-261.343v0zM213.259 425.739c-0.066 0-0.145 0.001-0.223 0.001-10.954 0-20.692-5.205-26.876-13.276l-0.060-0.081c-4.749-6.102-7.615-13.874-7.615-22.316 0-7.063 2.006-13.657 5.478-19.245l-0.090 0.155 162.95-243.534c42.163-62.126 112.464-102.408 192.172-102.408 0.683 0 1.365 0.003 2.047 0.009l-0.104-0.001h130.003c107.453 0 194.56 87.107 194.56 194.56v0 306.31c0 18.442-14.95 33.391-33.391 33.391s-33.391-14.95-33.391-33.391v0c0-18.442-14.95-33.391-33.391-33.391s-33.391 14.95-33.391 33.391v0 33.391c0.001 0.101 0.002 0.221 0.002 0.341 0 9.112-3.75 17.348-9.79 23.249l-0.006 0.006c-16.512-33.971-50.76-56.972-90.379-56.972s-73.867 23.001-90.118 56.378l-0.261 0.594c-5.967-6.086-9.685-14.397-9.795-23.575v-0.021c0-18.442-14.95-33.391-33.391-33.391s-33.391 14.95-33.391 33.391v0 300.522c0 18.442-14.95 33.391-33.391 33.391s-33.391-14.95-33.391-33.391v0-500.87c0.001-0.086 0.001-0.187 0.001-0.289 0-13.093-7.536-24.426-18.507-29.899l-0.193-0.087c-4.26-2.043-9.262-3.237-14.542-3.237-7.981 0-15.324 2.727-21.15 7.3l0.074-0.056-108.633 86.817c-5.461 3.94-12.287 6.301-19.665 6.301-0.757 0-1.507-0.025-2.251-0.074l0.101 0.005zM531.59 626.087v0zM498.198 425.739c-18.341 0.247-33.144 15.050-33.391 33.368v100.197c0 18.442 14.95 33.391 33.391 33.391s33.391-14.95 33.391-33.391v0-100.174c0-18.442-14.95-33.391-33.391-33.391v0zM631.763 425.739c-18.341 0.247-33.144 15.050-33.391 33.368v100.197c0 18.442 14.95 33.391 33.391 33.391s33.391-14.95 33.391-33.391v0-100.174c0-18.442-14.95-33.391-33.391-33.391v0zM765.329 425.739c-18.341 0.247-33.144 15.050-33.391 33.368v66.806c0 18.442 14.95 33.391 33.391 33.391s33.391-14.95 33.391-33.391v0-66.783c0-18.442-14.95-33.391-33.391-33.391v0z" />
<glyph unicode="&#xe930;" glyph-name="close" d="M46.545-64c-0.064 0-0.141-0.001-0.217-0.001-12.782 0-24.345 5.222-32.671 13.649l-0.004 0.005c-8.411 8.421-13.612 20.049-13.612 32.892s5.202 24.471 13.613 32.893v0l930.909 930.909c8.29 7.74 19.455 12.492 31.731 12.492 25.706 0 46.545-20.839 46.545-46.545 0-12.276-4.752-23.442-12.517-31.758l0.025 0.027-930.909-930.909c-8.33-8.432-19.893-13.654-32.675-13.654-0.076 0-0.152 0-0.229 0.001h0.012zM977.455-64c-0.064 0-0.141-0.001-0.217-0.001-12.782 0-24.345 5.222-32.671 13.649l-0.004 0.005-930.909 930.909c-7.74 8.29-12.492 19.455-12.492 31.731 0 25.706 20.839 46.545 46.545 46.545 12.276 0 23.442-4.752 31.758-12.517l-0.027 0.025 930.909-930.909c8.411-8.421 13.612-20.049 13.612-32.892s-5.202-24.471-13.613-32.893v0c-8.33-8.432-19.893-13.654-32.675-13.654-0.076 0-0.152 0-0.229 0.001h0.012z" />
<glyph unicode="&#xe931;" glyph-name="plus" d="M992 416h-960c-17.673 0-32 14.327-32 32s14.327 32 32 32v0h960c17.673 0 32-14.327 32-32s-14.327-32-32-32v0zM512-64c-17.577 0.237-31.763 14.423-32 31.977v960.023c0 17.673 14.327 32 32 32s32-14.327 32-32v0-960c-0.237-17.577-14.423-31.763-31.977-32h-0.023z" />
<glyph unicode="&#xe932;" glyph-name="refresh" d="M224 128h-192c-17.673 0-32 14.327-32 32s14.327 32 32 32v0h160v160.427c0 17.673 14.327 32 32 32s32-14.327 32-32v0-192c0.002-0.127 0.003-0.277 0.003-0.427 0-17.673-14.327-32-32-32-0.001 0-0.002 0-0.003 0v0zM800 512c-0.001 0-0.002 0-0.003 0-17.673 0-32 14.327-32 32 0 0.15 0.001 0.3 0.003 0.449v-0.023 192c0.471 17.394 14.569 31.343 31.978 31.573h192.022c17.673 0 32-14.327 32-32s-14.327-32-32-32v0h-160v-159.573c0.002-0.127 0.003-0.277 0.003-0.427 0-17.673-14.327-32-32-32-0.001 0-0.002 0-0.003 0v0zM512 0c-61.603 0.121-120.247 12.657-173.605 35.238l2.938-1.104c-11.942 4.824-20.216 16.321-20.216 29.751 0 4.674 1.002 9.115 2.804 13.118l-0.081-0.202c4.824 11.942 16.321 20.216 29.751 20.216 4.674 0 9.115-1.002 13.118-2.804l-0.202 0.081c44.521-19.546 96.416-30.921 150.968-30.921 212.077 0 384 171.923 384 384 0 103.949-41.304 198.252-108.395 267.391l0.093-0.096c-5.782 5.789-9.359 13.784-9.359 22.613s3.576 16.824 9.359 22.614v0c5.789 5.782 13.784 9.359 22.613 9.359s16.824-3.576 22.614-9.359v0c78.208-80.559 126.425-190.608 126.425-311.919 0-247.424-200.576-448-448-448-1.697 0-3.391 0.009-5.083 0.028l0.258-0.002zM213.333 128c-9.175 0.037-17.468 3.782-23.465 9.812l-0.001 0.001c-75.714 80.114-122.26 188.489-122.26 307.736 0 247.659 200.767 448.427 448.427 448.427 60.027 0 117.299-11.794 169.626-33.192l-2.993 1.083c11.77-4.919 19.89-16.338 19.89-29.653 0-17.701-14.349-32.050-32.050-32.050-4.385 0-8.565 0.881-12.371 2.475l0.211-0.079c-44.33 19.358-95.982 30.622-150.266 30.622-212.077 0-384-171.923-384-384 0-103.594 41.022-197.607 107.708-266.681l-0.108 0.112c5.782-5.789 9.359-13.784 9.359-22.613s-3.576-16.824-9.359-22.614v0c-4.734-4.967-11.073-8.367-18.182-9.368l-0.165-0.019z" />
<glyph unicode="&#xe933;" glyph-name="card" d="M921.6-64h-819.2c-56.554 0-102.4 45.846-102.4 102.4v0 819.2c0 56.554 45.846 102.4 102.4 102.4v0h819.2c56.554 0 102.4-45.846 102.4-102.4v0-819.2c0-56.554-45.846-102.4-102.4-102.4v0zM102.4 891.733c-18.749-0.253-33.88-15.385-34.133-34.109v-819.224c0.253-18.749 15.385-33.88 34.109-34.133h819.224c18.749 0.253 33.88 15.385 34.133 34.109v819.224c-0.253 18.749-15.385 33.88-34.109 34.133h-0.024zM989.867 209.067h-955.733c-18.851 0-34.133 15.282-34.133 34.133s15.282 34.133 34.133 34.133v0h955.733c18.851 0 34.133-15.282 34.133-34.133s-15.282-34.133-34.133-34.133v0z" />
<glyph unicode="&#xe934;" glyph-name="confused" d="M512 960c-282.77 0-512-229.23-512-512s229.23-512 512-512c282.77 0 512 229.23 512 512v0c0 282.77-229.23 512-512 512v0zM512 0c-247.424 0-448 200.576-448 448s200.576 448 448 448c247.424 0 448-200.576 448-448v0c-0.243-247.326-200.674-447.757-447.977-448h-0.023zM288 576h32v-32c0-17.673 14.327-32 32-32s32 14.327 32 32v0 32h32c17.673 0 32 14.327 32 32s-14.327 32-32 32v0h-32v32c0 17.673-14.327 32-32 32s-32-14.327-32-32v0-32h-32c-17.673 0-32-14.327-32-32s14.327-32 32-32v0zM736 640h-32v32c0 17.673-14.327 32-32 32s-32-14.327-32-32v0-32h-32c-17.673 0-32-14.327-32-32s14.327-32 32-32v0h32v-32c0-17.673 14.327-32 32-32s32 14.327 32 32v0 32h32c17.673 0 32 14.327 32 32s-14.327 32-32 32v0zM736 405.333c-17.577-0.237-31.763-14.423-32-31.977v-0.023c0-107.093-51.627-119.467-90.027-119.467s-52.907 19.2-73.813 58.88c-19.283 54.343-70.242 92.565-130.131 92.587h-0.003c-46.080 0-154.027-15.787-154.027-181.333 0-17.673 14.327-32 32-32s32 14.327 32 32v0c0 107.093 51.627 119.467 90.027 119.467s52.907-19.2 73.813-58.453c19.023-54.564 70.033-93.013 130.023-93.013 0.039 0 0.077 0 0.116 0h-0.006c46.080 0 154.027 17.92 154.027 183.467-1.358 16.661-15.13 29.692-31.983 29.867h-0.017z" />
<glyph unicode="&#xe935;" glyph-name="minus" d="M992 490.667h-960c-17.577-0.237-31.763-14.423-32-31.977v-0.023c0.237-17.577 14.423-31.763 31.977-32h960.023c17.577 0.237 31.763 14.423 32 31.977v0.023c-0.237 17.577-14.423 31.763-31.977 32h-0.023z" />
</font>
</defs>
</svg>
