<svg xmlns="http://www.w3.org/2000/svg" viewBox="0 0 133.64 183.7"><defs><style>.cls-1{fill:#e18c5b;}.cls-2{fill:#181b24;}</style></defs><g id="Layer_2" data-name="Layer 2"><g id="Layer_1-2" data-name="Layer 1"><g id="Group_7952" data-name="Group 7952"><g id="Group_7945" data-name="Group 7945"><g id="Group_7938" data-name="Group 7938"><g id="Group_7937" data-name="Group 7937"><path id="Path_30314" data-name="Path 30314" class="cls-1" d="M19,131.77A18.71,18.71,0,0,1,.35,113.08V19.37a18.7,18.7,0,0,1,37.39,0v93.71A18.72,18.72,0,0,1,19,131.77ZM19,5.09A14.3,14.3,0,0,0,4.76,19.37v93.71a14.28,14.28,0,0,0,28.56.23V19.37A14.3,14.3,0,0,0,19,5.09Z"/><path id="Path_30315" data-name="Path 30315" class="cls-1" d="M19,1A18.36,18.36,0,0,1,37.38,19.37v93.71a18.34,18.34,0,1,1-36.68.27v-94A18.37,18.37,0,0,1,19,1m0,126.68a14.66,14.66,0,0,0,14.64-14.63V19.37a14.64,14.64,0,0,0-29.27,0v93.71a14.66,14.66,0,0,0,14.64,14.63M19.05.33a19.06,19.06,0,0,0-19,19v93.71a19,19,0,0,0,38.09.28v-94a19.06,19.06,0,0,0-19-19Zm0,126.67A13.94,13.94,0,0,1,5.12,113.08V19.37a13.93,13.93,0,0,1,27.85,0v93.71A13.94,13.94,0,0,1,19.05,127Z"/></g></g><g id="Group_7940" data-name="Group 7940"><g id="Group_7939" data-name="Group 7939"><path id="Path_30316" data-name="Path 30316" class="cls-1" d="M114.32,131.77a18.71,18.71,0,0,1-18.69-18.69V19.37a18.69,18.69,0,0,1,37.38,0v93.71A18.71,18.71,0,0,1,114.32,131.77Zm0-126.68A14.3,14.3,0,0,0,100,19.37v93.71a14.38,14.38,0,0,0,14.43,14.28,14.23,14.23,0,0,0,14.13-14.28V19.37A14.3,14.3,0,0,0,114.32,5.09Z"/><path id="Path_30317" data-name="Path 30317" class="cls-1" d="M114.32,1a18.36,18.36,0,0,1,18.34,18.34v93.71a18.34,18.34,0,0,1-36.68,0V19.37A18.36,18.36,0,0,1,114.32,1m.15,126.68A14.52,14.52,0,0,0,129,113.15V19.37a14.63,14.63,0,0,0-29.26,0v93.71a14.78,14.78,0,0,0,14.78,14.63M114.32.33a19.07,19.07,0,0,0-19,19v93.71a19.05,19.05,0,0,0,38.1,0V19.37a19.07,19.07,0,0,0-19.05-19ZM114.47,127a14,14,0,0,1-9.92-4.08,13.78,13.78,0,0,1-4.16-9.84V19.37a13.93,13.93,0,0,1,27.85,0v93.71a13.89,13.89,0,0,1-4,9.84A13.54,13.54,0,0,1,114.47,127Z"/></g></g><g id="Group_7942" data-name="Group 7942"><g id="Group_7941" data-name="Group 7941"><path id="Path_30318" data-name="Path 30318" class="cls-1" d="M67.11,85.54A18.69,18.69,0,0,1,53.9,53.63L101.37,6.15a18.7,18.7,0,0,1,26.44,26.44L80.33,80.07A18.62,18.62,0,0,1,67.11,85.54ZM114.59,5.1a14.22,14.22,0,0,0-10.1,4.17L57,56.75A14.28,14.28,0,0,0,77.21,76.94l47.47-47.47A14.27,14.27,0,0,0,114.58,5.1Z"/><path id="Path_30319" data-name="Path 30319" class="cls-1" d="M114.59,1a18.34,18.34,0,0,1,13,31.3L80.08,79.82A18.34,18.34,0,0,1,54.15,53.88L101.62,6.41a18.26,18.26,0,0,1,13-5.37M56.77,77.19h0a14.62,14.62,0,0,0,20.69,0l47.48-47.47A14.63,14.63,0,1,0,104.24,9L56.77,56.5a14.65,14.65,0,0,0,0,20.69M114.59.34h0a18.88,18.88,0,0,0-13.47,5.57L53.65,53.38A19,19,0,0,0,80.58,80.31h0l47.48-47.47A19,19,0,0,0,114.59.34ZM57.2,76.62A13.94,13.94,0,0,1,57.27,57L104.74,9.53a13.93,13.93,0,1,1,19.7,19.69h0L77,76.69a13.92,13.92,0,0,1-19.69,0h0l-.07-.07Z"/></g></g><g id="Group_7944" data-name="Group 7944"><g id="Group_7943" data-name="Group 7943"><path id="Path_30320" data-name="Path 30320" class="cls-1" d="M66.52,85.2A18.54,18.54,0,0,1,53.3,79.73L5.82,32.26A18.7,18.7,0,0,1,32.26,5.82h0L79.73,53.3A18.68,18.68,0,0,1,66.52,85.2ZM19,4.77A14.28,14.28,0,0,0,8.94,29.14L56.42,76.61A14.28,14.28,0,0,0,76.61,56.42L29.14,9A14.17,14.17,0,0,0,19,4.77Z"/><path id="Path_30321" data-name="Path 30321" class="cls-1" d="M19,.71A18.28,18.28,0,0,1,32,6.07L79.49,53.55A18.34,18.34,0,0,1,53.55,79.49h0L6.07,32A18.33,18.33,0,0,1,19,.71M66.52,81.14a14.63,14.63,0,0,0,10.35-25L29.39,8.7A14.63,14.63,0,0,0,8.7,29.39L56.17,76.86a14.56,14.56,0,0,0,10.35,4.28M19,0A19,19,0,0,0,5.58,32.5L53.05,80A19,19,0,0,0,80,53.05L32.51,5.57A18.89,18.89,0,0,0,19,0ZM66.52,80.43a13.81,13.81,0,0,1-9.85-4.07L9.2,28.89A13.92,13.92,0,0,1,28.89,9.2L76.37,56.67a13.92,13.92,0,0,1-9.85,23.76Z"/></g></g></g><g id="Group_7951" data-name="Group 7951"><g id="Group_7946" data-name="Group 7946"><path id="Path_30322" data-name="Path 30322" class="cls-2" d="M.47,145.19h5l9.85,22,9.81-22H30v28.06h-4.6V154l-8.56,19.21H13.67L5.07,154v19.21H.47Z"/></g><g id="Group_7947" data-name="Group 7947"><path id="Path_30323" data-name="Path 30323" class="cls-2" d="M45.76,150.64a9.47,9.47,0,0,1,7.71,3.59V151h4.64v22.25H53.47v-3.32a9.58,9.58,0,0,1-7.79,3.68c-5.78,0-10.42-4.72-10.42-11.59S39.9,150.64,45.76,150.64Zm1,4c-3.44,0-6.75,2.58-6.75,7.39s3.31,7.59,6.75,7.59,6.74-2.7,6.74-7.51-3.27-7.47-6.74-7.47Z"/></g><g id="Group_7948" data-name="Group 7948"><path id="Path_30324" data-name="Path 30324" class="cls-2" d="M64.89,143.37h4.6v17.36L77.56,151h6.38L73.69,162.14l10.25,11.1H77.73l-8.24-9.56v9.56h-4.6Z"/></g><g id="Group_7949" data-name="Group 7949"><path id="Path_30325" data-name="Path 30325" class="cls-2" d="M97.55,173.61c-6.38,0-11.1-4.52-11.1-11.5s4.52-11.47,11.1-11.47c6.34,0,10.82,4.4,10.82,10.94a15.42,15.42,0,0,1-.16,2.26h-17a6.12,6.12,0,0,0,6.33,5.9h0a5.4,5.4,0,0,0,5.25-3.11h5C106.51,170.5,103,173.61,97.55,173.61Zm-6.3-13.48h12.31c-.08-3.44-2.79-5.62-6.22-5.62a6.07,6.07,0,0,0-6.09,5.62Z"/></g><g id="Group_7950" data-name="Group 7950"><path id="Path_30326" data-name="Path 30326" class="cls-2" d="M128.87,151h4.77L120,183.7h-4.76l4.52-10.81L111,151h5.13l6.25,17Z"/></g></g></g></g></g></svg>