<svg xmlns="http://www.w3.org/2000/svg" width="1931" height="200.94" viewBox="0 0 1931 200.94">
  <g id="Group_6106" data-name="Group 6106" transform="translate(-39.5 -3103.56)">
    <path id="Intersection_31" data-name="Intersection 31" d="M62.422,217V42.391c18.592-1,38.588-.834,58.169-.67,8.029.068,15.989.135,23.753.122,18.574-.032,73.391-3.576,88.374-.165-2.507-.571-3.268-2.651.216-3.268,3.054-.54,12.571.753,15.813,1.073,7.9-5.594,24.4-4.816,45.333-4.816l20.224.353-49.913,1.461a349.135,349.135,0,0,0,70.483-2.926l-39.971-.54a470.906,470.906,0,0,0,54.889-2.577l-26.4-1.112c31.352-1.231,70.743-4.529,98.926-4.507h.1c2.038,0,4.072.009,6.046-.146.537-.042,1.155-.059,1.721-.047,2.954.059,5.808-.093,8.592-.262a41.79,41.79,0,0,1,5.967,0c.406.031.857.031,1.459.051a79.673,79.673,0,0,1,8.691-.465,35.062,35.062,0,0,1,5.893.208,9.752,9.752,0,0,0,1.675,0c1.108-.076,2.22-.167,3.241-.29a61.545,61.545,0,0,1,6.771-.3c.211,0,.421,0,.632,0,.507,0,1.013.007,1.516-.031,2.9-.229,5.961-.288,8.939-.438.693-.033,1.443-.041,2.143-.023.665.018,1.306-.018,1.946-.053a19.886,19.886,0,0,1,2.313-.037,3.491,3.491,0,0,0,.751-.085A8.51,8.51,0,0,1,492.7,22.8c.749.02,1.5.009,2.259,0,1.11-.014,2.227-.03,3.347.051a13.2,13.2,0,0,0,2.117-.074c1.872-.217,3.957-.194,5.909-.316a17.286,17.286,0,0,1,2.58.02,16.728,16.728,0,0,0,3.361-.093c1.045-.116,2.057-.246,3.084-.369a16.555,16.555,0,0,0,3.8-.391c2.119-.3,4.442-.491,6.707-.716a16.418,16.418,0,0,0,3.484-.348,6.456,6.456,0,0,1,1.2-.1,31.9,31.9,0,0,0,4.7-.468,8.862,8.862,0,0,1,3.707-.293,24.945,24.945,0,0,0,3-.1c2.374-.172,4.84-.206,7.3-.23.707-.006,1.456.016,2.129.065a17.76,17.76,0,0,0,2.117.075c.457-.02.92-.014,1.385-.01a17.51,17.51,0,0,0,2.053-.057,11.9,11.9,0,0,1,2.907.076c.62.085,1.254.168,1.915.238a13.277,13.277,0,0,0,1.624.122c1.8-.041,3.383.155,5.088.212.886.03,1.7.04,2.57-.015,1.826-.112,3.668-.21,5.5-.314.7-.04,1.4-.1,2.11-.121a16.359,16.359,0,0,1,3.669.225c.326.065.666.125.98.183,1.373.061,2.635-.039,3.923-.068a6.868,6.868,0,0,1,2.571.277,5.456,5.456,0,0,0,.7.124c.688-.013,1.437,0,2.128-.04a51,51,0,0,1,6-.114,3.362,3.362,0,0,0,.436,0c1.1-.079,2.168-.186,3.29-.239.42-.021.854-.015,1.29-.011a13.578,13.578,0,0,0,2.105-.084,17.957,17.957,0,0,1,2.941-.092c.448.009.9.019,1.338.015a19.353,19.353,0,0,1,3.673.257,8.543,8.543,0,0,0,1.578.143c.658-.014,1.317,0,1.976.022a26.229,26.229,0,0,0,3.168-.041,8.909,8.909,0,0,1,1.681.02,35.851,35.851,0,0,0,7.938.034c1.372-.107,2.743-.22,4.05-.363a11.533,11.533,0,0,1,2.5-.035,8.493,8.493,0,0,0,2.764-.14c.417-.089.9-.162,1.438-.255,1.454.042,2.745.2,4.1.3q3.932.294,7.856.6a6.191,6.191,0,0,0,1.238-.026,7.238,7.238,0,0,1,2.355.109,3.142,3.142,0,0,0,1.763-.024,7.778,7.778,0,0,1,3.053-.1c.472.076.862.183,1.354.25a6.928,6.928,0,0,0,1.209.075c.974-.053,1.949-.042,2.924-.031.621.006,1.241.014,1.861,0,1.274-.02,2.257-.084,2.51-.423a2.673,2.673,0,0,1,1.341-.2,4.042,4.042,0,0,1,1.72.242c.1.059.076.13.167.192a2.2,2.2,0,0,0,1.267.2c1.881-.069,3.742-.071,5.639,0a19.81,19.81,0,0,0,3.395-.1,7.2,7.2,0,0,1,1.254-.037,17.852,17.852,0,0,0,2.487-.044c.593-.039,1.185-.076,1.8-.069,1.452.017,2.894.061,4.346.076,1.795.021,3.277-.26,5.035-.287a52.924,52.924,0,0,1,6.741-.32c.583,0,1.167-.01,1.745,0a11.012,11.012,0,0,0,3.692-.422,36.436,36.436,0,0,0,6.573.325c1.443-.014,2.951-.039,4.294-.146a65.38,65.38,0,0,1,7.735-.087,6.957,6.957,0,0,0,1.964-.149,12.455,12.455,0,0,1,3.476-.318c.288.007.584.005.871,0a71.812,71.812,0,0,1,8.984.2,8.036,8.036,0,0,0,.861.025,4.887,4.887,0,0,0,1.509-.157,8.743,8.743,0,0,1,3.46-.517c2.6-.009,5.208.036,7.81.072.924.014,1.282.268.685.461-.167.052-.454.084-.646.133-.321.082-.183.2.216.229a19.759,19.759,0,0,0,4.14-.137.693.693,0,0,0,.392-.168,5.042,5.042,0,0,1,2.509-.483c1-.038,2.016-.041,3.03-.049a5.91,5.91,0,0,1,1.834.225,4.594,4.594,0,0,0,1.493.141c1.152-.033,2.31-.051,3.469-.068a9.416,9.416,0,0,0,2.567-.313,8.475,8.475,0,0,1,4.037-.049,7.8,7.8,0,0,0,1.752.254c1,.032,2.008.108,3.009.1,1.652-.006,3.3.022,4.949.049,2.415.041,4.83.082,7.254.017a22.467,22.467,0,0,0,3.668-.149,23.932,23.932,0,0,0,3.219-.253,31.411,31.411,0,0,1,5.041-.194c.617,0,.976.141,1.067.278.154.242.8.332,1.785.338.581,0,1.164.014,1.746.007,2.632-.031,5.219.049,7.812.14,1,.035,2.021.035,3.033.04.27,0,.538-.041.89-.071.091-.081.279-.173.279-.264,0-.285.612-.506,1.314-.722a9.734,9.734,0,0,1,3.017-.312c.578.014,1.15.039,1.727.054s1.214.072,1.713.032a49.416,49.416,0,0,1,6.01.069c1.286.053,2.589.126,3.877.117s2.572-.033,3.88.013c.522.019,1.105-.061,1.665-.092.278-.016.563-.023.843-.031.367-.012.868.085.844.181-.015.059-.139.134-.328.168a16.785,16.785,0,0,0-2.255.255c-.064.026-.053.066-.022.1a.424.424,0,0,0,.207.064c.421.01.9.039,1.263.008a50.221,50.221,0,0,1,5.577-.087c2.44.067,4.932.048,7.4.048a18.064,18.064,0,0,0,3.213-.274c1.25-.227,2.5-.455,3.8-.668.824-.137.876-.312.864-.519-.008-.175,1-.276,1.592-.182.234.039.46.084.642.133a7.112,7.112,0,0,0,1.882.207c2.767.01,5.535.031,8.251-.123a31.42,31.42,0,0,1,3.448-.034c.34.017.544.052.519.134-.019.064,0,.14-.149.185a8.535,8.535,0,0,1-2.079.346c-1.569.081-2.885.294-4.377.413-.143.011-.158.1-.238.16,1.159.066,2.305.033,3.457-.011.714-.027,1.437-.068,2.15-.063,3.362.019,6.686-.032,9.96-.217a10.833,10.833,0,0,1,2.783.207c.615.122.579.335-.132.41-.652.07-1.323.131-2.005.184-1.353.1-1.536.127-1.2.2a7.117,7.117,0,0,0,1.575.035c2.9-.006,5.771-.206,8.684-.056,1.861-.072,3.722-.14,5.579-.218a4.232,4.232,0,0,0,.738-.1,19.789,19.789,0,0,1,4.845-.3c2.168.067,4.343.059,6.523-.006,1.292-.039,2.623-.052,3.921-.029q4.99.092,9.987.037a4.969,4.969,0,0,1,.815.059c.2.035.384.107.371.159-.045.173-.4.318-1.062.41a39.835,39.835,0,0,1-5.422.319c-2.049,0-4.073.026-6.019.184-.4.033-.768.091-1.133.142-.094.014-.2.056-.175.074a.783.783,0,0,0,.374.17,25.37,25.37,0,0,0,3.312.2c1.575.034,3.225.036,4.763-.036a36.237,36.237,0,0,0,4.2-.22,17.035,17.035,0,0,1,2.075-.111q4.114-.1,8.245-.171c.711-.012,1.439.036,2.162.036.215,0,.433,0,.652,0,.811,0,1.633.007,2.372-.045,1.273-.09,2.558-.11,3.843-.157.954-.037,1.851-.159,2.749-.242a10.059,10.059,0,0,0,2.987.374c.434-.008.887-.014,1.307.005a72.962,72.962,0,0,0,8.993-.222,14.937,14.937,0,0,1,3.342.044,23.29,23.29,0,0,0,3.344.175h.752c1.493,0,2.986,0,4.462.076a20.62,20.62,0,0,0,3.011-.049,70.353,70.353,0,0,1,8.162-.212c.953.018,1.9.011,2.845,0s1.865-.014,2.79,0c1.888.037,3.772.039,5.66.058,1.312.013,2.585-.031,3.873-.1,1.39-.081,2.861-.091,4.372-.133a5.773,5.773,0,0,0,.67-.086,20.705,20.705,0,0,1,5.773-.557c1.452.014,2.91,0,4.369,0,.726,0,1.486.027,2.178-.009,3.448-.18,6.972-.045,10.431-.148a2.519,2.519,0,0,1,.418.017,4.769,4.769,0,0,1,.587.133c.234.073.058.23-.273.263-.658.063-1.322.124-2,.177-.533.041-1.088.069-1.764.111a4.086,4.086,0,0,0,.6.1c.868,0,1.735-.022,2.6-.028a6.025,6.025,0,0,1,1.562.145,15.672,15.672,0,0,0,3.812.414c1.44.043,2.889.073,4.337.1,2.024.034,4.05.027,6.076.1,1.255.043,2.626,0,3.887-.065,3.781-.194,7.531-.086,11.275.027a38.37,38.37,0,0,0,5.84-.27.334.334,0,0,0,.2-.084c.014-.017-.081-.057-.14-.058-1.006-.027-2.049-.021-3.015-.078-1.256-.076-2.459-.2-3.682-.306-.677-.059-1.347-.121-2.021-.181a2.959,2.959,0,0,1-1.18-.271,4.159,4.159,0,0,0-1.69-.265c-.432-.012-.87-.016-1.3-.013s-.868.02-1.3.03l-6.5.14c-2.129-.154-4.343-.058-6.5-.12a5.619,5.619,0,0,1-.71-.093c-.211-.035-.152-.211.1-.28.281-.076.556-.156.9-.215a7.384,7.384,0,0,1,2.014-.121,42.782,42.782,0,0,0,4.477.134c.373,0,.746,0,1.119,0a47.961,47.961,0,0,0,5.152-.136,11.632,11.632,0,0,1,1.276-.053c2.05.02,4.058-.065,6.085-.108.56-.013,1.146.017,1.706.044.967.048,1.353.225,1.015.456a5.841,5.841,0,0,1-.582.294c.448.01.858.037,1.254.026a3.107,3.107,0,0,1,2.1.419c.816.023,1.673.041,2.525.072.718.025,1.426.061,2.135.1a15.566,15.566,0,0,1,1.646.1,19,19,0,0,0,4.455.221c2.125-.085,4.338-.067,6.516-.077a4.64,4.64,0,0,1,1.706.273c.24.091.032.317-.322.362a27.546,27.546,0,0,1-5.8.248c-1.139-.091-2.32-.064-3.463-.04-2.453.052-4.893.136-7.337.205-.346.01-.571.06-.463.137a2.1,2.1,0,0,0,.537.128,3.117,3.117,0,0,0,.42.023c.436,0,.873,0,1.3-.011.575-.016,1.189-.09,1.7-.061,1.406.079,2.791.041,4.176,0,.916-.025,1.832-.051,2.757-.042,2.16.021,4.35.012,6.506-.037a14.64,14.64,0,0,1,3.562.251,5.319,5.319,0,0,0,1.952-.067c.893-.215,1.087-.467.6-.733a3.494,3.494,0,0,0-.934-.185c-.383-.04-.862-.027-1.278-.052-.57-.036-.942-.227-.658-.318a4.616,4.616,0,0,1,1.541-.1,39.506,39.506,0,0,0,6.7.221c1.156-.015,2.308-.068,3.446-.124a21.791,21.791,0,0,1,3.75.167c.325.04.389.209.046.263-.562.088-1.168.161-1.714.235.939.111,1.86.209,2.734.325.639.086.924.335.705.536a2.742,2.742,0,0,1-1.422.346,41.489,41.489,0,0,1-4.745.065,55.863,55.863,0,0,0-6.024.1c-1.4.086-2.821.155-4.232.233a13.117,13.117,0,0,1-3.269-.158,16.027,16.027,0,0,0-4.043-.229c-.686.036-1.443.005-2.167-.006-1.028-.018-2.03.009-3.025.069a86.081,86.081,0,0,1-10.766.04c-.269-.017-.574,0-.97,0a6.039,6.039,0,0,0-.854.187,9.11,9.11,0,0,1-3.265.382c-.484,0-.97,0-1.456-.005-1.386-.008-2.77-.016-4.115.053-.278.271.464.389,1.23.485a10.286,10.286,0,0,0,1.266.056,39.953,39.953,0,0,1,5.455.32,5.454,5.454,0,0,0,.5.261,5.35,5.35,0,0,0,2.208.154,8.713,8.713,0,0,0,1.017-.18,46.885,46.885,0,0,1,7.389-1.01,4.166,4.166,0,0,1,.417-.026c1.315.008,2.621-.027,3.927-.061,1.725-.046,3.448-.092,5.189-.038.7.022,1.431.069,2.054.145a23.6,23.6,0,0,0,4.242,0,12.924,12.924,0,0,0,1.724-.306c2.258-.108,4.571-.145,6.906-.132.547,0,1.1,0,1.645,0,.91,0,1.821-.01,2.724.01a76.131,76.131,0,0,0,8.059-.348,9.355,9.355,0,0,0,2.258-.449c.038-.013-.012-.052-.071-.061a2.215,2.215,0,0,0-.4-.029c-.825.063-1.634.136-2.458.2a13.217,13.217,0,0,1-2.52-.086c-.518-.058-.954-.227-.729-.323a2.545,2.545,0,0,1,.791-.215,106.631,106.631,0,0,1,11.529-.4,17.94,17.94,0,0,1,2.821.239,13.273,13.273,0,0,0,2.888.129,48.8,48.8,0,0,0,5.221-.475,11.562,11.562,0,0,1,4.625.193,11.3,11.3,0,0,0,4.234.232c.257-.027.554-.043.838-.05a6.665,6.665,0,0,1,.842.017,4.552,4.552,0,0,1,.929.188c.206.085.147.19-.168.275a8.132,8.132,0,0,1-2.709.2,7.909,7.909,0,0,0-1.646-.052,30.831,30.831,0,0,1-5.915.044c-.137-.007-.288,0-.514,0-.318.041-.745.075-1.069.137a19.69,19.69,0,0,1-4.47.272c-2.018-.076-4.051-.061-6.082.012-1.211.044-1.687.213-1.861.464a1.091,1.091,0,0,1-.262.076c-1.278.174-2.836.137-4.137.273a36.355,36.355,0,0,1-3.741.234,5.443,5.443,0,0,0-1.418.206,5.531,5.531,0,0,1-1.07.144c-1.725.044-3.439.114-5.2.037a18.65,18.65,0,0,1-2.422-.192c-.33-.059-.766-.092-1.171-.129a10.822,10.822,0,0,0-3.241.1c-.212.044-.427.09-.63.139a12.335,12.335,0,0,1-2.722.27c-.727,0-1.477,0-2.172.034a54.622,54.622,0,0,1-6.045,0c-.532-.03-1.14,0-1.709.018-.312.009-.411.07-.29.151a2.422,2.422,0,0,0,1.188.258c1,.03,2.02.039,3.031.031.717-.005,1.5-.108,2.125-.066a39.928,39.928,0,0,0,5.536-.138,36.657,36.657,0,0,1,5.557-.041c.636.054,1.425.029,2.138.019.865-.013,1.739-.034,2.586-.078a37.317,37.317,0,0,1,4.733.056c.395.03.854.015,1.414.023.73-.139,1.5-.288,2.286-.431a7.394,7.394,0,0,1,2.74-.052,8.4,8.4,0,0,0,1.235.06c2.033-.008,4.07-.029,6.1-.041,1.458-.009,2.9,0,4.291.132a26.3,26.3,0,0,0,3.853-.05,8.177,8.177,0,0,1,3.015.273,6.32,6.32,0,0,0,2.216.227q8.067-.189,16.085.086c2.913.1,5.8.05,8.644-.128.834-.052,1.689-.094,2.548-.121a5.181,5.181,0,0,1,1.51.159c.235.063.288.225.043.273a7.654,7.654,0,0,1-1.017.177,111.371,111.371,0,0,1-11.572.344c-1.6-.049-3.167-.085-4.766-.011-.564.026-1.182.038-1.736.014-2.036-.09-4.036-.076-6.052.032-.537.03-1.158-.007-1.729-.029a9.872,9.872,0,0,0-2.408.155,29.609,29.609,0,0,1-5.368.29,6.8,6.8,0,0,1-1.119-.131,4.733,4.733,0,0,0-2.076-.038c-.5.065-1.014.124-1.532.179a15.354,15.354,0,0,1-2.962.051,45.64,45.64,0,0,0-6.425-.057,1.739,1.739,0,0,0-.53.138c-.194.071.244.2.67.205.143,0,.287.01.433.01,1.455,0,2.931.041,4.361,0,3.194-.094,6.392-.063,9.589-.074.476,0,.953,0,1.43,0,1.413,0,2.828.008,4.226-.066,2.572.131,5.242,0,7.812.152a7.192,7.192,0,0,0,2-.129,14.152,14.152,0,0,1,3.167-.27c1.456,0,2.91,0,4.368,0a27.468,27.468,0,0,0,3.4-.131,6.931,6.931,0,0,1,.822-.057q3.268,0,6.541.006a3.091,3.091,0,0,1,.419.021,4.6,4.6,0,0,1,.93.192c.1.072-.158.177-.3.263a1.194,1.194,0,0,1-.336.059c-.89.073-.89.22-.668.384.544-.044,1.081-.094,1.634-.128.8-.05,1.208-.163,1.265-.349.076-.271.778-.42,1.883-.466.695-.029,1.418-.036,2.129-.032.63,0,1.038.119,1.006.267-.012.063-.148.127-.173.191-.075.185.232.287.85.256a24.649,24.649,0,0,1,4.6.119,17.208,17.208,0,0,0,2.519.113c1.134-.014,2.261-.041,3.4-.067.04-.058.12-.118.049-.167-.195-.131-.389-.274.1-.367.417-.079,1.035-.106,1.569-.154.133-.012.288-.016.43-.015,2.466.033,4.906.112,7.306.242a1.205,1.205,0,0,1,.485.15c.2.1-.056.193-.352.264a3.665,3.665,0,0,1-.735.1,29.035,29.035,0,0,0-3.677.271,16.688,16.688,0,0,1-2.053.136c-4.2.059-8.4.154-12.625.106-.692-.008-1.408.054-2.1.094-.423.025-.689.178-.438.234a3.127,3.127,0,0,0,.655.113c3.039-.029,6.076-.074,9.119-.1,1.3-.013,2.6,0,3.9.012.5,0,.927.188.781.31a3.348,3.348,0,0,1-1.831.354c-.263,0-.526-.005-.79-.011-.307-.006-.615-.013-.917-.009-.36,0-.47.072-.378.149a3.027,3.027,0,0,0,1.811.34c3.9-.156,7.82-.119,11.748-.1q4.148.02,8.249-.15a15.661,15.661,0,0,1,2.125.013,38.893,38.893,0,0,0,4.269.14h2.621q1.528,0,3.058,0a70.63,70.63,0,0,0,7.269-.241,27.376,27.376,0,0,1,4.686.033c.4.03.67.266.333.349-.481.119-1.037.223-1.572.337a6.231,6.231,0,0,0,.729.085,12.447,12.447,0,0,0,1.27-.05,25.929,25.929,0,0,1,6.774-.008,28.13,28.13,0,0,0,4.067-.526,8.747,8.747,0,0,1,3.162-.069c.488.07.887.185,1.408.23.8.07,1.679.148,2.5.137.984-.014,1.957.008,2.93.03,1.042.023,2.083.047,3.133.027.139,0,.281.015.427.02.729.024,1.134.154,1.081.36-.016.065-.189.131-.132.189a1,1,0,0,0,.484.137c.858,0,1.715-.022,2.571-.044a42.6,42.6,0,0,1,4.3.111c.818.062,1.127.173,1.2.356.067.157.6.224,1.211.23,1.013.01,2.03,0,3.034,0,.525-.16-.312-.218-.415-.326-.057-.058-.08-.149.069-.181.84-.181,1.683-.366,2.634-.511a9.609,9.609,0,0,1,1.673-.054c1.118.064,2.193.169,3.277.262.458.039.715.214.473.345-.17.09-.5.167-.621.258-.055.04.177.125.374.151a4.959,4.959,0,0,0,.822.01,41.531,41.531,0,0,1,6.005,0,14.444,14.444,0,0,0,2.144-.014c1.387-.094,2.855-.1,4.217-.244.905-.094,1.962-.113,2.956-.16a3.639,3.639,0,0,1,1.75.193,4.957,4.957,0,0,0,.589.264,2.878,2.878,0,0,0,1.124.084,11.086,11.086,0,0,1,2.483-.045,11.588,11.588,0,0,0,1.246.035h.445c.4,0,.753-.1.8-.2.06-.138-.331-.319-.75-.323-2.478-.026-4.894-.143-7.319-.247a13.613,13.613,0,0,0-2.08.113,6.643,6.643,0,0,1-1.648-.027,1.828,1.828,0,0,1-.514-.149c-.157-.074.182-.22.528-.239,1.968-.1,3.874-.277,5.916-.285,2.471-.012,4.949,0,7.424.007,1.1,0,1.32.067,1.48.366.034.065-.031.146.113.192a4.611,4.611,0,0,0,.94.175c.389.03.854.011,1.284.008,1.453-.006,2.9-.022,4.354-.017a1.883,1.883,0,0,1,1.168.247c.176.184.644.284,1.488.3,2.163.03,4.347-.029,6.5.094a15.89,15.89,0,0,0,1.7-.055c.417-.025.828-.067,1.2-.119a58.888,58.888,0,0,1,7.071-.442,19.843,19.843,0,0,1,3.682.221,14.321,14.321,0,0,0,2.86.165c2.469-.063,4.916-.052,7.35.11,1.235.082,2.579.077,3.87.118.525.017.936.206.7.312-.528.234-1.078.465-1.613.7-.178.079.229.192.686.193.146,0,.293.011.436.005a26.8,26.8,0,0,1,4.226.122,17.573,17.573,0,0,0,4.927-.051,25.026,25.026,0,0,1,3.354-.164,4.866,4.866,0,0,1,.826.048,23.521,23.521,0,0,0,6.163.129,21.068,21.068,0,0,1,2.141-.039c2.742.041,5.437.186,8.211.18,1.285,0,2.582.09,3.864.148a13.813,13.813,0,0,0,2.512-.093,10.382,10.382,0,0,1,3.224.047,7.622,7.622,0,0,0,1.246.068c1.878-.038,3.793-.051,5.613-.15a74.28,74.28,0,0,1,7.763.05c1.584.077,3.142.122,4.751.111a9.7,9.7,0,0,0,2.327-.22,10.323,10.323,0,0,1,1.059-.17,8.552,8.552,0,0,1,2.064.05c.737.159,1.436.328,2.175.489a7.558,7.558,0,0,0,2.008.131,35.151,35.151,0,0,1,3.883-.014c1.476.058,3.275.032,4.908-.062a12.692,12.692,0,0,1,2.886.123c.346.06.655.131.986.2a9.593,9.593,0,0,0,1.982.148c2.03-.021,4.006-.084,5.907-.256a14.431,14.431,0,0,1,3.343.047,13.672,13.672,0,0,0,2.107.079,13.756,13.756,0,0,1,1.689.055,18.689,18.689,0,0,0,2.462.151c.53,0,1.073.079,1.6.125.67.059,1.329.126,2.007.175a20.45,20.45,0,0,0,3.829-.046,31.473,31.473,0,0,1,5.492-.125,39.729,39.729,0,0,0,4.33-.011,38.976,38.976,0,0,1,4.314.01c.982.052,2.014.059,3.017.093a18.029,18.029,0,0,1,3.809.427,4.745,4.745,0,0,0,1.94-.006c.42-.088.75-.205,1.217-.276a6.686,6.686,0,0,1,2.956.143c.264.077.532.153.894.257,5.06-.058,10.1.094,15.134.265.672.023,1.361.022,2.051.02.334,0,.668,0,1,0,1.452.006,2.9-.011,4.333.08a8.177,8.177,0,0,0,2.4-.143,12.684,12.684,0,0,1,2.335-.243c1.723-.074,3.456-.1,5.212-.094,1.448.01,2.889.032,4.349.005.982-.019,2,.056,3,.087a24.657,24.657,0,0,0,4.208-.11,18.609,18.609,0,0,1,2.121-.037c.547,0,.937.194.633.3-.158.053-.4.094-.593.143-.386.1-.337.154.149.19a11.326,11.326,0,0,0,2.888-.04c.212-.04.492-.063.754-.087a2.773,2.773,0,0,1,1.066.121c.176.118.2.3.547.341a14.775,14.775,0,0,0,2.094.068,48.777,48.777,0,0,0,4.95-.359,50.267,50.267,0,0,1,7.488-.426c1.162.009,2.326-.011,3.49-.019.292,0,.58-.021.866-.018,1.667.013,2.725.124,3.136.546.182.189.451.293,1.4.273.549-.012,1.121.037,1.689.051.424.01.865.025,1.279.012a18.893,18.893,0,0,1,3.262-.184,21.288,21.288,0,0,0,2.965-.041c.568-.011,1.155,0,1.727.022,1.3.039,2.586.085,3.88.127a14.805,14.805,0,0,0,2.1-.087,43.147,43.147,0,0,1,7.158-.231,11.584,11.584,0,0,0,1.286.008c2.282-.14,4.591-.108,6.9-.076.286,0,.618.031.861.007a42.235,42.235,0,0,1,4.51-.088c.643.01,1.285.02,1.925.018,2.9-.008,5.771-.039,8.623-.2a31.509,31.509,0,0,1,5.081.068,23.582,23.582,0,0,0,3.816.038c1.967-.106,4-.151,6.017-.2a13.383,13.383,0,0,1,1.687.065,14.359,14.359,0,0,0,2.882.019c1.616-.132,3.374-.174,5.072-.25a3.528,3.528,0,0,1,.427.007,18.22,18.22,0,0,0,2.811.226,24.835,24.835,0,0,1,3,0,20.411,20.411,0,0,0,4.208-.056,10.516,10.516,0,0,1,1.684.014c1.427.089,2.882.1,4.331.086,1.736-.014,3.491-.112,5.2-.076,1.622.033,3.158,0,4.748-.034,1.875-.041,3.781-.024,5.672-.015,3.484.015,6.954-.011,10.451.085,3.3.092,6.666.067,9.962.208a12.59,12.59,0,0,0,1.3,0c2.285-.153,4.637-.065,6.949-.121.287-.006.578-.029.861-.025,1.85.028,3.612.167,5.574.072,1.271-.06,2.611-.048,3.951-.035.571.005,1.142.011,1.708.011q2.841,0,5.679,0c1.889,0,3.783,0,5.674,0,.726,0,1.448.027,2.171.041,1.3.024,2.6.065,3.9.068q5.01.013,10.012.073c3.185.034,6.4.069,9.587-.036,1.119-.037,2.221-.006,3.323.023.917.025,1.834.05,2.759.038,2.7.16,5.52.054,8.233.184,4.659-.045,9.29.084,13.936.123,2.03.018,4.078.031,6.08.1,5.878.216,11.758.437,17.6.7,4.7.212,9.346.487,14.007.742,2.969.162,5.919.339,8.881.506q9.953.558,19.724,1.265c.136.011.269.027.411.034a60.74,60.74,0,0,1,8.952.967c.522.108,1.26.163,1.887.246a19.347,19.347,0,0,1,3.3.637,11.5,11.5,0,0,0,2.957.372q6.876.247,13.621.648a5.8,5.8,0,0,0,.725-.056c-.027-.032-.009-.074-.093-.1-.392-.1-.738-.219-.615-.355a2.8,2.8,0,0,1,1.408-.355c1.085-.093,2.2-.172,3.336-.223a12.613,12.613,0,0,1,1.69.049c1.876.186,4.054.122,5.832.381a5.022,5.022,0,0,0,.834.028c1.758-.093,3.466,0,5.19.059.142,0,.29.006.435,0l10.019-.1c1.776-.159,3.717-.071,5.548-.224,1.743-.146,3.713-.119,5.5-.284a41.416,41.416,0,0,1,4.738.012,9.217,9.217,0,0,1,1.456.2,19.886,19.886,0,0,0,4.02.317c.432-.006.907-.016,1.3.015,3.479.283,7.183.2,10.75.347,2.548.106,5.205.077,7.816.1a1.831,1.831,0,0,0,.613-.1c.07-.049-.022-.14-.193-.171-.682-.122-1.448-.219-2.129-.342a2.239,2.239,0,0,1-.747-.238c-.121-.086-.14-.213.061-.281a9.564,9.564,0,0,1,1.3-.25,6.162,6.162,0,0,1,.837-.044c2.762.014,5.52.041,8.279.044,1.347,0,2.6.066,3.812.183a65.8,65.8,0,0,0,6.755.35,9.616,9.616,0,0,1,1.6.126,44.57,44.57,0,0,0,5.643.5c1.425.073,2.8.172,4.177.276,1.652.125,3.324.248,5.026.329,2.724.127,5.335.305,7.753.632.856.114,1.922.146,2.83.244.772.085,1.476.2,2.178.318.423.069.405.266.071.36a8.784,8.784,0,0,1-2.223.282,17.037,17.037,0,0,1-5.052-.407,5.284,5.284,0,0,0-1.458-.184c-3.468-.074-6.945-.131-10.405-.222-1.868-.049-3.747-.127-5.554-.246a31.889,31.889,0,0,0-3.386-.1,24.8,24.8,0,0,1-3.756-.194,21.385,21.385,0,0,0-2.972-.11c-.893.022-1.476.1-1.2.184a3.991,3.991,0,0,0,.9.184c2.348.175,4.721.331,7.08.5.554.039,1.089.093,1.634.139a4.542,4.542,0,0,1,1.811.4,3.674,3.674,0,0,1,.435.282,2.629,2.629,0,0,0,.576.405h25.542V217ZM312.6,41.771c-.027,0-.037.018-.058.026h9.149c-1.967-.105-3.945-.206-4.43-.178-.555.032-1.14.041-1.078.04A31.291,31.291,0,0,0,312.6,41.771Zm-5.925-1.138c-.359.017-.567.205.076.216,3.025.05,6.986-.113,10.266-.227a4.117,4.117,0,0,0,.662-.125,26.845,26.845,0,0,0-3.222-.3C312.068,40.5,309.423,40.5,306.671,40.633Zm1.512-1.337c.439.045,6.467-.039,6.919-.048a4.252,4.252,0,0,0,.7-.1c.284-.051.219-.1-.151-.145-2.076-.247-.528-.492-3.46-.509h-.072C309.653,38.49,307,39.171,308.183,39.3Zm11.1-.244a4.8,4.8,0,0,0,1.685.2c1.546-.108,3.124-.1,4.705-.105.689,0,2.013-.1,1.947-.278a1.14,1.14,0,0,0-.513-.116c-.851-.007-1.706-.018-2.553-.018A34.009,34.009,0,0,0,319.285,39.052Zm-13.593-1.04a13.813,13.813,0,0,0,2.005.217,25.164,25.164,0,0,1,6.206-.438,20.519,20.519,0,0,0,4.114.2c1.3.1,2.6.072,3.911.043.853-.019,1.707-.038,2.557-.02a1.869,1.869,0,0,0,.591-.123.286.286,0,0,0,.191-.194c.059-.238.672-.363,1.639-.386,2.3-.058,4.582-.184,6.932-.146.426.006.877-.006,1.291-.032.614-.037.906-.139.793-.3-4.674-.216-5.366-.071-9.9,0a2.081,2.081,0,0,1-1.439-.381,16.059,16.059,0,0,0,2.718-.421.561.561,0,0,0-.244-.061,14.9,14.9,0,0,0-4.308.291c.29.111.7.242.539.361a5.461,5.461,0,0,1-2.025.315c-1.479-.022-2.839.1-4.254.158-.9.036-1.836.032-2.771.028-.527,0-1.054-.005-1.576,0-1.115.01-5.95.211-7.318.242-1.739.039-3.305.265-5.119.223a7.229,7.229,0,0,0-1.116.133c-.395.057.019.181.356.211a4.6,4.6,0,0,0,.846.005,14.759,14.759,0,0,1,2.092-.14C303.519,37.8,304.608,37.907,305.692,38.012Zm1040.37-8.573a2.023,2.023,0,0,0-1.155.3,34.128,34.128,0,0,0,4.553-.019,4.115,4.115,0,0,0,.818-.222,19.484,19.484,0,0,0-2.178-.109C1347.413,29.391,1346.733,29.416,1346.061,29.439Zm-175.605-4.283a5.049,5.049,0,0,0-1.1.118,6.288,6.288,0,0,1-2.779.561c-.674.043-.841.165-.828.3.012.122-.223.257.317.39.745.021,1.6.031,2.432.071.982.047,1.936.121,2.91.18a2.792,2.792,0,0,0,.427-.005c.217-.024.42-.059.6-.1.026-.005-.094-.072-.2-.08-.809-.069-1.628-.135-2.453-.193s-1.051-.358-.414-.493a24.3,24.3,0,0,1,3.534-.55c.371-.026.806-.007,1.215-.005a21.1,21.1,0,0,0-2.923-.214Q1170.829,25.141,1170.456,25.156Zm23.445.082c-.136.006-.271.018-.405.03.186.01.367.02.547.031a.623.623,0,0,0-.142-.061ZM1047.651,23.4c-.349.007-.516.063-.427.142a3.919,3.919,0,0,0,.587.463,5.573,5.573,0,0,0,2.191.17c.871-.111,1.652-.262,2.56-.347,1.033-.1,2.159-.139,3.237-.209.093-.006.216-.051.2-.068a.585.585,0,0,0-.328-.148c-.544-.027-1.124-.051-1.667-.033-1.28.04-2.551.071-4.32,0C1049.322,23.376,1048.485,23.386,1047.651,23.4Zm-11.031-.472a13.222,13.222,0,0,1,2.291.264,12.423,12.423,0,0,0,2.781.225c.726,0,1.452,0,2.174-.015.628-.01,1.032-.072,1.085-.239.1-.316,1.066-.449,2.273-.514.42-.022.866-.017,1.3-.025,2.025-.036,4.048-.068,6.068-.11a5.613,5.613,0,0,0,.748-.086.349.349,0,0,0,.213-.084c.007-.02-.13-.057-.22-.061-.56-.023-1.124-.05-1.689-.056-.74-.008-1.476,0-2.215.015-.837.013-1.678.026-2.531.012-1.559-.026-3.158.066-4.739.1-.717.017-1.44.039-2.16.034-1.735-.01-3.472-.043-5.208-.051a52.709,52.709,0,0,1-6.595-.312c-.838.149-1.53.267-2.206.392-.241.043-.1.214.151.264a9.054,9.054,0,0,0,2.033.125c.6-.024,1.185-.034,1.77-.034C1033.523,22.777,1035.069,22.852,1036.621,22.931Zm-12.833-1.083c-1.7.068-3.343.185-5.085.209a13.283,13.283,0,0,0-2.693.28c-.173.04-.294.121-.238.172a2.719,2.719,0,0,0,.6.1c.121.014.284.007.476.011.383,0,.828.017,1.241,0q3.369-.162,6.713-.346a2.121,2.121,0,0,0,.568-.136c.22-.071-.006-.229-.333-.242-.35-.015-.716-.045-1.059-.045Q1023.882,21.845,1023.787,21.848Zm20.633-1.19c-1.372.074-2.727.159-4.074.252-.106.007-.211.122-.114.158a4.929,4.929,0,0,0,2.14.167,24.358,24.358,0,0,0,2.963-.516c-.347-.025-.614-.063-.831-.063Zm-17.742.214c.961.064,1.873.172,2.775.274a7.889,7.889,0,0,0,1.67.031c1.835-.19,3.723-.359,5.344-.645a8.3,8.3,0,0,0-2.764-.251c-3.059.131-6.058.048-9.079-.055-1.428-.049-2.889-.076-4.332-.07-2.022.007-4.046.053-6.069.083a29.09,29.09,0,0,0-3.69.263c-.309.044-.533.179-.343.259a1.7,1.7,0,0,0,.56.13q2.555.116,5.125.208c.556.018,1.162.006,1.714-.023.844-.044,1.7-.1,2.484-.181,1.728-.179,2.443-.252,3.117-.252C1023.947,20.644,1024.65,20.736,1026.678,20.873Z" transform="translate(-22.422 3087)" fill="#e18c5b" stroke="rgba(0,0,0,0)" stroke-miterlimit="10" stroke-width="1"/>
  </g>
</svg>
