<svg id="Graduation_Icon" data-name="Graduation Icon" xmlns="http://www.w3.org/2000/svg" width="16" height="12.994" viewBox="0 0 16 12.994">
  <path id="Path_9821" data-name="Path 9821" d="M1103.505,4563.678a.433.433,0,0,1-.21-.374v-4.885l4.792,2.36a1.047,1.047,0,0,0,.468.109,1.025,1.025,0,0,0,.464-.109l4.8-2.36v4.877a.428.428,0,0,1-.221.378,11.31,11.31,0,0,1-5.142,1.33A10.191,10.191,0,0,1,1103.505,4563.678Zm11.813-.961a.654.654,0,0,1,.418-.59.413.413,0,0,1-.006-.068v-5.48l-2.217,1.093-4.8,2.368a.374.374,0,0,1-.312,0l-4.8-2.368-2.555-1.259a.422.422,0,0,1,0-.739l7.358-3.627a.355.355,0,0,1,.312,0l7.357,3.627a.913.913,0,0,1,.34.466v5.92a.373.373,0,0,1-.006.066.659.659,0,0,1,.42.592.758.758,0,0,1-1.5,0Z" transform="translate(-1100.821 -4552.01)" fill="#fff"/>
</svg>
