<svg xmlns="http://www.w3.org/2000/svg" width="359.249" height="123.966" viewBox="0 0 359.249 123.966">
  <g id="Group_7848" data-name="Group 7848" transform="translate(-792.751 -3602.75)">
    <g id="Group_7765" data-name="Group 7765" transform="translate(793.001 3603)">
      <g id="Group_6016" data-name="Group 6016" transform="translate(0)">
        <g id="Group_6012" data-name="Group 6012" transform="translate(0 0.304)">
          <path id="Path_12562" data-name="Path 12562" d="M370.036,374.3a17.343,17.343,0,0,1-17.324-17.324V268.467a17.324,17.324,0,0,1,34.648,0v88.514A17.344,17.344,0,0,1,370.036,374.3Zm0-119.658a13.835,13.835,0,0,0-13.82,13.82v88.514a13.82,13.82,0,1,0,27.64,0V268.467A13.836,13.836,0,0,0,370.036,254.647Z" transform="translate(-352.712 -251.143)" fill="#e18c5b" stroke="#e18c5b" stroke-width="0.5"/>
        </g>
        <g id="Group_6013" data-name="Group 6013" transform="translate(89.999 0.304)">
          <path id="Path_12563" data-name="Path 12563" d="M639.94,374.3a17.343,17.343,0,0,1-17.324-17.324V268.467a17.324,17.324,0,0,1,34.648,0v88.514A17.343,17.343,0,0,1,639.94,374.3Zm0-119.658a13.836,13.836,0,0,0-13.82,13.82v88.514A13.96,13.96,0,0,0,640.083,370.8a13.715,13.715,0,0,0,13.677-13.822V268.467A13.835,13.835,0,0,0,639.94,254.647Z" transform="translate(-622.616 -251.143)" fill="#e18c5b" stroke="#e18c5b" stroke-width="0.5"/>
        </g>
        <g id="Group_6014" data-name="Group 6014" transform="translate(45.408 0.312)">
          <path id="Path_12564" data-name="Path 12564" d="M506.214,330.652a17.208,17.208,0,0,1-12.25-5.074h0a17.323,17.323,0,0,1,0-24.5l44.845-44.845a17.323,17.323,0,1,1,24.5,24.5l-44.845,44.845A17.209,17.209,0,0,1,506.214,330.652Zm44.844-75.982a13.776,13.776,0,0,0-9.772,4.041l-44.845,44.845a13.836,13.836,0,0,0,0,19.545h0a13.82,13.82,0,0,0,19.545,0l44.845-44.845a13.814,13.814,0,0,0-9.773-23.586Z" transform="translate(-488.89 -251.168)" fill="#e18c5b" stroke="#e18c5b" stroke-width="0.5"/>
        </g>
        <g id="Group_6015" data-name="Group 6015" transform="translate(0.008)">
          <path id="Path_12565" data-name="Path 12565" d="M414.9,329.707a17.268,17.268,0,0,1-12.249-5.066L357.8,279.8a17.323,17.323,0,0,1,24.5-24.5l44.845,44.845a17.322,17.322,0,0,1,0,24.5h0A17.268,17.268,0,0,1,414.9,329.707Zm-44.845-75.974a13.814,13.814,0,0,0-9.773,23.586l44.845,44.845a13.836,13.836,0,0,0,19.545,0h0a13.819,13.819,0,0,0,0-19.545l-44.845-44.845A13.778,13.778,0,0,0,370.052,253.732Z" transform="translate(-352.736 -250.231)" fill="#e18c5b" stroke="#e18c5b" stroke-width="0.5"/>
        </g>
      </g>
    </g>
    <text id="Makey" transform="translate(950 3684.449)" fill="#2d3143" font-size="60" font-family="Poppins-Medium, Poppins" font-weight="500" letter-spacing="0.01em"><tspan x="0" y="0">Makey</tspan></text>
  </g>
</svg>
