<svg xmlns="http://www.w3.org/2000/svg" viewBox="0 0 108.29 7.79"><defs><style>.cls-1{fill:#eccda7;}</style></defs><g id="Layer_2" data-name="Layer 2"><g id="Layer_1-2" data-name="Layer 1"><g id="Group_6099" data-name="Group 6099"><path id="Path_12574" data-name="Path 12574" class="cls-1" d="M103.82,7.79a4.14,4.14,0,0,1-2.48-.88,6.74,6.74,0,0,1-2-2.53c-.77-1.58-1.93-2.49-3.17-2.49S93.78,2.8,93,4.38a6.74,6.74,0,0,1-2,2.53,3.94,3.94,0,0,1-5,0,6.94,6.94,0,0,1-2-2.53c-.77-1.58-1.92-2.49-3.17-2.49s-2.4.91-3.17,2.49a6.84,6.84,0,0,1-2,2.53,3.94,3.94,0,0,1-5,0,6.74,6.74,0,0,1-2-2.53C68,2.8,66.85,1.89,65.61,1.89s-2.4.91-3.18,2.49a6.81,6.81,0,0,1-2,2.53A4.14,4.14,0,0,1,58,7.79h0a4.14,4.14,0,0,1-2.48-.88,6.74,6.74,0,0,1-2-2.53c-.77-1.58-1.93-2.49-3.18-2.49s-2.4.91-3.17,2.49a6.74,6.74,0,0,1-2,2.53,4.14,4.14,0,0,1-2.48.88h0a4.14,4.14,0,0,1-2.48-.88,6.81,6.81,0,0,1-2-2.53C37.45,2.8,36.29,1.89,35,1.89s-2.4.91-3.17,2.49a6.84,6.84,0,0,1-2,2.53,4.14,4.14,0,0,1-2.48.88h0a4.14,4.14,0,0,1-2.48-.88,6.74,6.74,0,0,1-2-2.53C22.16,2.8,21,1.89,19.76,1.89s-2.4.91-3.18,2.49a6.74,6.74,0,0,1-2,2.53,4.13,4.13,0,0,1-2.47.88h0a4.14,4.14,0,0,1-2.48-.88,6.74,6.74,0,0,1-2-2.53C6.88,2.8,5.72,1.89,4.47,1.89S2.07,2.8,1.3,4.38L0,3.4A6.82,6.82,0,0,1,2,.87a4,4,0,0,1,5,0,6.92,6.92,0,0,1,2,2.53C9.71,5,10.86,5.9,12.11,5.9s2.4-.91,3.17-2.5a7,7,0,0,1,2-2.53,4,4,0,0,1,5,0,6.82,6.82,0,0,1,2,2.53C25,5,26.15,5.9,27.39,5.9s2.4-.91,3.18-2.5a6.82,6.82,0,0,1,2-2.53,4,4,0,0,1,5,0,6.89,6.89,0,0,1,2,2.53c.77,1.59,1.93,2.5,3.18,2.5s2.4-.91,3.17-2.5a6.92,6.92,0,0,1,2-2.53,4,4,0,0,1,5,0,6.82,6.82,0,0,1,2,2.53C55.56,5,56.72,5.9,58,5.9s2.4-.91,3.18-2.5a6.82,6.82,0,0,1,2-2.53,4,4,0,0,1,4.95,0,6.82,6.82,0,0,1,2,2.53C70.84,5,72,5.9,73.25,5.9s2.4-.91,3.17-2.5a6.82,6.82,0,0,1,2-2.53A4.13,4.13,0,0,1,80.89,0h0a4.13,4.13,0,0,1,2.48.87,7,7,0,0,1,2,2.53c.77,1.59,1.92,2.5,3.17,2.5S90.93,5,91.7,3.4a6.92,6.92,0,0,1,2-2.53A4.13,4.13,0,0,1,96.17,0h0a4.13,4.13,0,0,1,2.48.87,6.82,6.82,0,0,1,2,2.53c.77,1.59,1.93,2.5,3.17,2.5S106.21,5,107,3.4l1.3,1a6.94,6.94,0,0,1-2,2.53A4.14,4.14,0,0,1,103.82,7.79Z"/></g></g></g></svg>